<?xml version="1.0" encoding="utf-8"?>
<!-- Generator: Adobe Illustrator 27.1.1, SVG Export Plug-In . SVG Version: 6.00 Build 0)  -->
<svg version="1.1" id="Слой_1" xmlns="http://www.w3.org/2000/svg" xmlns:xlink="http://www.w3.org/1999/xlink" x="0px" y="0px"
	 viewBox="0 0 128 128" style="enable-background:new 0 0 128 128;" xml:space="preserve">
<style type="text/css">
	.st0{fill:#FFFFFF;}
</style>
<path class="st0" d="M120.3,63.2c-0.8-15.9-3.7-23.9-9.5-25.7c-0.9-2.5-2.6-4.5-4.9-5.8c0,0,0,0-0.1,0l-0.1,0
	c-3.4-1.9-7.4-1.8-10.1-1.8c-0.4,0-0.7,0-1,0c-2.4,0-5.3,0.3-8.7,0.6c-5,0.6-10,0.9-15,1c-1.1,0-2.3,0-3.7,0l-1.7,0
	c-5.8-0.1-15.3-0.3-23.2,0.9c-0.1-0.2-0.1-0.3-0.2-0.5c3.3-4,4.9-9.2,4.4-14.4c-0.1-1-1-1.7-1.9-1.6c-0.5,0.1-1,0.3-1.3,0.8
	c-2.5,3.4-5.6,6.4-9.2,8.9c-1.8-0.3-3.6-0.5-5.4-0.4h-0.3c-1.8-0.1-3.6,0.1-5.4,0.4C19.7,23,16.6,20,14,16.6c-0.5-0.8-1.6-1-2.4-0.5
	c-0.4,0.3-0.7,0.8-0.8,1.3c-0.5,5.2,1.1,10.3,4.4,14.4c-0.1,0.2-0.2,0.4-0.2,0.6c-3.2-0.4-7.4,0.4-9.5,1.9c-0.8,0.6-0.9,1.7-0.4,2.4
	c2,3,5.3,5,8.9,5.4c0,0.4,0.1,0.8,0.1,1.2c1.6,14,5.8,17.8,10.8,18.7c1.8,1.8,3.5,3.4,4.8,5c1.4,1.6,2.7,3.4,3.8,5.2
	c1.1,7.4,2.3,22.1,1.1,31.4c-0.1,1,0.6,1.8,1.5,2c0.1,0,0.1,0,0.2,0h5.7c0.8,0,1.5-0.6,1.7-1.4c0.1-0.5,2-9.9,3.2-16.2
	c0.5,9.3,0.4,15.7,0.4,15.8c0,1,0.8,1.8,1.7,1.8c0,0,0,0,0,0h7.1c0.9,0,1.6-0.6,1.7-1.5c0-0.2,2.7-16.1,3.5-25.7
	c0-0.5-0.2-1-0.5-1.4c-0.4-0.4-0.9-0.9-1.2-1.4c0.8,0,1.7,0,2.5,0c1.3,0,2.6,0,3.8,0h0.2c1,0,1.9,0,2.9,0c0.2,0,0.4,0,0.6,0
	c0.8,0,1.6,0,2.4,0c0.2,0,0.5,0,0.7,0c0.9,0,1.9-0.1,2.8-0.1c1.2-0.1,2.2-0.1,3.3-0.2c1.6,2.3,4.2,5.4,7,7l-2,21.3
	c-0.1,1,0.6,1.8,1.6,1.9c0.1,0,0.1,0,0.2,0h7.1c0.9,0,1.6-0.6,1.7-1.5c0-0.1,2.2-12.9,3.2-22.5c0.4,0.3,0.9,0.5,1.4,0.8l-2,21.3
	c-0.1,1,0.6,1.8,1.6,1.9c0.1,0,0.1,0,0.2,0h7.1c0.9,0,1.6-0.6,1.7-1.5c0.2-1,4.1-24.1,3.6-31.2c-0.1-1.8-0.3-3.5-0.5-5.1
	c-0.5-4.4-0.9-8.3,0.3-13.8c0.8-3.8,1.1-7.8,0.8-11.7c2.7,3,4.3,10,4.9,21c-1.3,0.7-2.7,2.5-2.7,6.8c0.1,3.1,1.3,6,3.2,8.3
	c0.6,0.7,1.7,0.8,2.5,0.2c0.1-0.1,0.1-0.1,0.2-0.2c2-2.4,3.1-5.3,3.2-8.3C123.3,65.6,121.7,63.8,120.3,63.2L120.3,63.2z M86.4,33.9
	c3.3-0.3,6.1-0.6,8.3-0.6c0.3,0,0.7,0,1.1,0c1.8-0.1,3.6,0,5.4,0.3c-5,3.7-9.5,8.9-12.7,12.6c-1.2,1.3-2.2,2.5-2.8,3.1
	c-1.5,1.4-6,2.5-9.9,1.1c-3.2-1.2-5.1-3.8-5.5-7.6c-0.2-2.7-0.8-5.4-1.6-7.9c0.9,0,1.7,0,2.4,0C76.2,34.9,81.3,34.5,86.4,33.9
	L86.4,33.9z M43.6,38.6c0-1-0.1-1.9-0.3-2.8c1.6-0.1,3.2,0.1,4.8,0.5C46.9,37.5,45.3,38.4,43.6,38.6z M42.9,22.7
	c-0.5,2.1-1.4,4.1-2.7,5.9c-0.6-0.6-1.3-1.2-2-1.6C39.8,25.7,41.4,24.3,42.9,22.7z M19.3,27c-0.7,0.5-1.4,1-2,1.6
	c-1.3-1.8-2.2-3.8-2.7-5.9C16.1,24.3,17.6,25.7,19.3,27z M14.1,35.8c-0.1,0.9-0.2,1.9-0.3,2.8c-1.7-0.3-3.3-1.1-4.5-2.3
	C10.9,35.8,12.5,35.7,14.1,35.8z M17.6,43c-0.7-5.5,0.1-9.5,2.1-11.8c2.2-2.5,5.8-2.7,8.3-2.7h0.9c1.7-0.1,3.4,0.1,5.1,0.5
	c0.1,0,0.2,0.1,0.3,0.1c1.4,0.4,2.6,1.1,3.5,2.1c2,2.3,2.8,6.3,2.1,11.8C38,58.9,33.3,58.9,28.7,58.9c-0.9,0-1.8,0-2.6-0.1
	c-0.1,0-0.1,0-0.2,0C22.3,58.2,19.1,55.6,17.6,43z M45.3,81.3c-0.3,0.3-0.5,0.6-0.6,1c-0.6,3.1-3.1,15.5-3.9,19.7h-2.3
	c0.7-7.9,0-18.6-0.8-26c2.5,1.9,5.2,3.5,8.1,4.9C45.4,81.2,45.3,81.3,45.3,81.3z M72.7,72.1c-0.3,0-0.6,0-0.8,0c-0.6,0-1.3,0-1.9,0
	c-0.4,0-0.8,0-1.2,0c-0.6,0-1.3,0-1.9,0c-0.4,0-0.7,0-1.1,0c-0.9,0-1.9,0-2.8,0l-1.1-0.7c-4.9-3.1-8.2-5.2-9.1-7.9
	c-0.3-0.8,0-1.6,0.5-2.2c1.6-2,5.4-3.6,8.3-3.3c3.9,0.3,5.8,0.5,9.8,10.3c0.5,1.3,1.1,2.6,1.6,3.7L72.7,72.1z M91.4,102.1h-3.7
	l1.9-20.6c0.1-0.8-0.4-1.5-1.1-1.8c-1.5-0.6-3.4-2.3-5.4-4.7c2.6-0.2,5.3-0.8,7.8-1.6c0.8,2.1,2,4,3.6,5.7
	C93.9,86.7,92.1,98.1,91.4,102.1L91.4,102.1z M107.4,68.2c0.2,1.6,0.4,3.2,0.5,5c0.4,5.7-2.4,23.7-3.3,28.9h-3.7l1.9-20.6
	c0.1-0.8-0.4-1.5-1.1-1.8c-5.6-2.2-7.9-7.6-7.8-8.7c0.2-0.9-0.4-1.9-1.4-2.1c-0.5-0.1-1,0-1.4,0.3c-1,0.8-4.1,2.1-14.3,2.7
	c-0.7-1.5-1.5-3.1-2.2-4.9c-4.1-10.1-6.8-12-12.7-12.5c-4.1-0.3-9.1,1.7-11.4,4.7c-1.3,1.5-1.7,3.6-1.1,5.5c1,2.9,3.5,5.1,7,7.4
	c-0.5,0.1-0.9,0.4-1.1,0.8c-0.3,0.5-0.4,1.2-0.1,1.7c0.8,1.6,1.8,3,2.9,4.4c-0.7,7.7-2.5,19.1-3.1,23.1h-3.8c0-3.5-0.1-11.8-0.9-22
	c0,0,0,0,0-0.1c0-0.1,0-0.2-0.1-0.3c0,0,0-0.1,0-0.1c-0.1-0.1-0.1-0.3-0.2-0.4c0,0,0-0.1-0.1-0.1c-0.1-0.1-0.1-0.2-0.2-0.2
	c0,0-0.1-0.1-0.1-0.1c-0.1-0.1-0.2-0.1-0.3-0.2c0,0,0,0-0.1,0c-4.6-1.8-8.7-4.5-12.3-7.9c0,0,0,0-0.1-0.1c-1.3-2-2.8-4-4.4-5.9
	c-0.7-0.7-1.4-1.5-2.2-2.3c6-0.3,11.3-2.7,13.3-19c0-0.4,0.1-0.8,0.1-1.2c3.6-0.4,6.9-2.4,8.9-5.4c0.4-0.5,0.4-1.3,0.1-1.9
	c4.5-0.2,8.8-0.1,12.1,0c0.8,1.3,1.5,3.2,2.1,8.4c0.6,5.1,3.4,8.9,7.8,10.5c1.6,0.6,3.4,0.9,5.1,0.9c3.5,0,6.7-1.1,8.4-2.7
	c0.7-0.7,1.7-1.8,3-3.3c3.3-3.8,8.6-10,13.9-13.3c3.6,2.7,4.5,8.8,2.7,18C106.4,59.3,106.9,63.6,107.4,68.2z M118.7,74.1
	c-0.7-1.2-1-2.6-1.1-4c0-2.7,0.7-3.8,1.1-3.8s1.1,1,1.1,3.8C119.7,71.5,119.4,72.8,118.7,74.1L118.7,74.1z"/>
</svg>
