<?xml version="1.0" encoding="utf-8"?>
<!-- Generator: Adobe Illustrator 27.1.1, SVG Export Plug-In . SVG Version: 6.00 Build 0)  -->
<svg version="1.1" id="Capa_1" xmlns="http://www.w3.org/2000/svg" xmlns:xlink="http://www.w3.org/1999/xlink" x="0px" y="0px"
	 viewBox="0 0 512 512" style="enable-background:new 0 0 512 512;" xml:space="preserve">
<style type="text/css">
	.st0{fill:#FFFFFF;}
</style>
<g>
	<path class="st0" d="M76,362H15c-8.3,0-15,6.7-15,15v120c0,8.3,6.7,15,15,15s15-6.7,15-15v-45h15c8.3,0,15-6.7,15-15s-6.7-15-15-15
		H30v-30h46c8.3,0,15-6.7,15-15S84.3,362,76,362z"/>
	<path class="st0" d="M286,392c8.3,0,15-6.7,15-15s-6.7-15-15-15h-60c-8.3,0-15,6.7-15,15v120c0,8.3,6.7,15,15,15h60
		c8.3,0,15-6.7,15-15s-6.7-15-15-15h-45v-30h15c8.3,0,15-6.7,15-15s-6.7-15-15-15h-15v-30H286z"/>
	<path class="st0" d="M196,407c0-24.8-20.2-45-45-45h-30c-8.3,0-15,6.7-15,15v60v60c0,8.3,6.7,15,15,15s15-6.7,15-15v-45h5.7
		l25.9,51.7c3.7,7.4,12.7,10.4,20.1,6.7c7.4-3.7,10.4-12.7,6.7-20.1l-21.9-43.8C186.5,438.9,196,424,196,407L196,407z M136,422v-30
		h15c8.3,0,15,6.7,15,15s-6.7,15-15,15H136z"/>
	<path class="st0" d="M361,422c-8.3,0-15-6.7-15-15s6.7-15,15-15c4,0,7.8,1.6,10.6,4.4c5.9,5.9,15.4,5.9,21.2,0s5.9-15.4,0-21.2
		C384.3,366.7,373,362,361,362c-24.8,0-45,20.2-45,45s20.2,45,45,45c8.3,0,15,6.7,15,15s-6.7,15-15,15c-4,0-7.8-1.6-10.6-4.4
		c-5.9-5.9-15.4-5.9-21.2,0c-5.9,5.9-5.9,15.4,0,21.2c8.5,8.5,19.8,13.2,31.8,13.2c24.8,0,45-20.2,45-45S385.8,422,361,422z"/>
	<path class="st0" d="M497,362c-8.3,0-15,6.7-15,15v45h-31v-45c0-8.3-6.7-15-15-15s-15,6.7-15,15v120c0,8.3,6.7,15,15,15
		s15-6.7,15-15v-45h31v45c0,8.3,6.7,15,15,15s15-6.7,15-15V377C512,368.7,505.3,362,497,362z"/>
	<path class="st0" d="M316,332c8.3,0,15-6.7,15-15s-6.7-15-15-15h-45v-32.8c67.4-7.5,120-64.8,120-134.2c0-8.3-6.7-15-15-15
		c-42.4,0-80.2,19.6-105,50.3V165v-15v-30c49.6,0,90-40.4,90-90V15c0-8.3-6.7-15-15-15h-15c-47.3,0-86.3,36.7-89.7,83.2
		C225.3,68.8,204.2,60,181,60h-15c-8.3,0-15,6.7-15,15v15c0,49.6,40.4,90,90,90v122h-45c-8.3,0-15,6.7-15,15s6.7,15,15,15H316z
		 M359.7,151.3c-7,44.9-42.6,80.5-87.5,87.5C279.3,193.8,314.8,158.3,359.7,151.3z M331,30c0,33.1-26.9,60-60,60
		C271,56.9,297.9,30,331,30z M181,90c33.1,0,60,26.9,60,60C207.9,150,181,123.1,181,90z"/>
</g>
</svg>
