<?xml version="1.0" encoding="UTF-8"?>
<svg id="_Слой_1" data-name="Слой 1" xmlns="http://www.w3.org/2000/svg" viewBox="0 0 972.46 1054.26">
  <defs>
    <style>
      .cls-1 {
        fill: #968d00;
      }

      .cls-2 {
        fill: #eedc00;
      }

      .cls-3 {
        fill: #4ccc4c;
      }

      .cls-4 {
        fill: #fffcd5;
      }

      .cls-5, .cls-6 {
        fill: none;
      }

      .cls-6 {
        stroke: #4ccc4c;
        stroke-miterlimit: 10;
        stroke-width: 65px;
      }
    </style>
  </defs>
  <g>
    <path class="cls-4" d="m67.97,314.54l6.64-11.14-10.3-7.18c-11.08-7.73-25.86-4.28-33.01,7.7l-6.64,11.14,10.3,7.18c11.08,7.73,25.86,4.28,33.01-7.7Z"/>
    <path class="cls-1" d="m77.67,302.68l-7.84,13.14c-7.8,13.07-23.96,16.84-36.05,8.41l-12.15-8.47,7.84-13.14c7.8-13.07,23.96-16.84,36.05-8.41l12.15,8.47Zm-49.96,11.68l8.45,5.89c10.05,7.01,23.49,3.85,29.96-6.99l5.45-9.13-8.45-5.89c-10.05-7.01-23.49-3.85-29.96,6.99l-5.45,9.13Z"/>
    <path class="cls-4" d="m56.16,311.12l2.36-3.96-3.66-2.55c-3.95-2.75-9.19-1.53-11.73,2.74l-2.36,3.96,3.66,2.55c3.93,2.74,9.2,1.51,11.73-2.74Z"/>
    <path class="cls-1" d="m61.56,306.45l-3.55,5.96c-3.2,5.36-9.82,6.9-14.78,3.45l-5.51-3.84,3.55-5.96c3.2-5.36,9.82-6.9,14.78-3.45l5.51,3.84Zm-17.75,4.14l1.81,1.26c2.92,2.04,6.81,1.13,8.69-2.03l1.17-1.96-1.81-1.26c-2.92-2.04-6.81-1.13-8.69,2.03l-1.17,1.96Z"/>
    <path class="cls-5" d="m45.58,283.13c28.88,20.15,57.67,40.44,86.48,60.71,28.56,20.09,57.13,40.16,85.8,60.06,16.3,11.31,32.63,22.57,49.02,33.74"/>
    <path class="cls-1" d="m268.01,435.38L46.77,281.13l-2.39,4,223.35,155.72c.08-1.82.18-3.65.28-5.47Z"/>
    <path class="cls-4" d="m81.27,292.25l-6.64,11.14-10.3-7.18c-11.08-7.73-14.27-23.7-7.13-35.68l6.64-11.14,10.3,7.18c11.08,7.73,14.27,23.7,7.13,35.68Z"/>
    <path class="cls-1" d="m83.12,293.54l-7.84,13.14-12.15-8.47c-12.09-8.43-15.58-25.9-7.78-38.97l7.84-13.14,12.15,8.47c12.09,8.43,15.58,25.9,7.78,38.97Zm-9.15,6.55l5.45-9.13c6.48-10.87,3.56-25.4-6.47-32.39l-8.45-5.89-5.45,9.13c-6.48,10.87-3.56,25.4,6.47,32.39l8.45,5.89Z"/>
    <path class="cls-4" d="m73.51,282.03l-2.36,3.96-3.66-2.55c-3.95-2.75-5.08-8.42-2.53-12.69l2.36-3.96,3.66,2.55c3.93,2.74,5.07,8.44,2.53,12.69Z"/>
    <path class="cls-1" d="m75.36,283.32l-3.55,5.96-5.51-3.84c-4.95-3.45-6.39-10.62-3.19-15.98l3.55-5.96,5.51,3.84c4.95,3.45,6.39,10.62,3.19,15.98Zm-4.87-.62l1.17-1.96c1.88-3.16,1.04-7.36-1.88-9.4l-1.81-1.26-1.17,1.96c-1.88,3.16-1.04,7.36,1.88,9.4l1.81,1.26Z"/>
    <path class="cls-4" d="m42.99,270.19l2.58,12.94-11.97,2.79c-12.88,3.01-25.59-5.85-28.37-19.78l-2.58-12.94,11.97-2.79c12.86-3.02,25.57,5.84,28.37,19.78Z"/>
    <path class="cls-1" d="m48.19,284.95l-14.14,3.3c-14.07,3.28-27.97-6.41-31-21.62l-3.05-15.28,14.14-3.3c14.07-3.28,27.97,6.41,31,21.62l3.05,15.28Zm-42.95-29.94l2.12,10.64c2.52,12.61,14.09,20.68,25.76,17.96l9.84-2.3-2.12-10.64c-2.52-12.61-14.09-20.68-25.76-17.96l-9.84,2.3Z"/>
    <path class="cls-4" d="m30.81,268.9l.92,4.61-4.26.99c-4.57,1.07-9.09-2.09-10.07-7.02l-.92-4.61,4.26-.99c4.58-1.09,9.08,2.05,10.07,7.02Z"/>
    <path class="cls-1" d="m34.35,275.31l-6.43,1.5c-5.75,1.34-11.44-2.63-12.71-8.86l-1.39-6.95,6.43-1.5c5.75-1.34,11.44,2.63,12.71,8.86l1.39,6.95Zm-15.25-10.64l.45,2.27c.36,1.79,1.33,3.29,2.75,4.28,1.42.99,3.09,1.31,4.74.94l2.1-.49-.45-2.27c-.36-1.79-1.33-3.29-2.75-4.28s-3.09-1.31-4.74-.94l-2.1.49Z"/>
    <path class="cls-4" d="m102.27,338.45l6.64-11.14-10.3-7.18c-11.08-7.73-25.86-4.28-33.01,7.7l-6.64,11.14,10.3,7.18c11.08,7.73,25.86,4.28,33.01-7.7Z"/>
    <path class="cls-1" d="m111.97,326.58l-7.84,13.14c-7.8,13.07-23.96,16.84-36.05,8.41l-12.15-8.47,7.84-13.14c7.8-13.07,23.96-16.84,36.05-8.41l12.15,8.47Zm-49.96,11.68l8.45,5.89c10.05,7.01,23.49,3.85,29.96-6.99l5.45-9.13-8.45-5.89c-10.05-7.01-23.49-3.85-29.96,6.99l-5.45,9.13Z"/>
    <path class="cls-4" d="m90.45,335.03l2.36-3.96-3.66-2.55c-3.95-2.75-9.19-1.53-11.73,2.74l-2.36,3.96,3.66,2.55c3.93,2.74,9.2,1.51,11.73-2.74Z"/>
    <path class="cls-1" d="m95.85,330.36l-3.55,5.96c-3.2,5.36-9.82,6.9-14.78,3.45l-5.51-3.84,3.55-5.96c3.2-5.36,9.82-6.9,14.78-3.45l5.51,3.84Zm-17.75,4.14l1.81,1.26c2.92,2.04,6.81,1.13,8.69-2.03l1.17-1.96-1.81-1.26c-2.92-2.04-6.81-1.13-8.69,2.03l-1.17,1.96Z"/>
    <path class="cls-4" d="m115.56,316.16l-6.64,11.14-10.3-7.18c-11.08-7.73-14.27-23.7-7.13-35.68l6.64-11.14,10.3,7.18c11.08,7.73,14.27,23.7,7.13,35.68Z"/>
    <path class="cls-1" d="m117.41,317.45l-7.84,13.14-12.15-8.47c-12.09-8.43-15.58-25.9-7.78-38.97l7.84-13.14,12.15,8.47c12.09,8.43,15.58,25.9,7.78,38.97Zm-9.15,6.55l5.45-9.13c6.48-10.87,3.56-25.4-6.47-32.39l-8.45-5.89-5.45,9.13c-6.48,10.87-3.56,25.4,6.47,32.39l8.45,5.89Z"/>
    <path class="cls-4" d="m107.81,305.94l-2.36,3.96-3.66-2.55c-3.95-2.75-5.08-8.42-2.53-12.69l2.36-3.96,3.66,2.55c3.93,2.74,5.07,8.44,2.53,12.69Z"/>
    <path class="cls-1" d="m109.66,307.23l-3.55,5.96-5.51-3.84c-4.95-3.45-6.39-10.62-3.19-15.98l3.55-5.96,5.51,3.84c4.95,3.45,6.39,10.62,3.19,15.98Zm-4.87-.62l1.17-1.96c1.88-3.16,1.04-7.36-1.88-9.4l-1.81-1.26-1.17,1.96c-1.88,3.16-1.04,7.36,1.88,9.4l1.81,1.26Z"/>
    <path class="cls-4" d="m136.56,362.36l6.64-11.14-10.3-7.18c-11.08-7.73-25.86-4.28-33.01,7.7l-6.64,11.14,10.3,7.18c11.08,7.73,25.86,4.28,33.01-7.7Z"/>
    <path class="cls-1" d="m146.26,350.49l-7.84,13.14c-7.8,13.07-23.96,16.84-36.05,8.41l-12.15-8.47,7.84-13.14c7.8-13.07,23.96-16.84,36.05-8.41l12.15,8.47Zm-49.96,11.68l8.45,5.89c10.05,7.01,23.49,3.85,29.96-6.99l5.45-9.13-8.45-5.89c-10.05-7.01-23.49-3.85-29.96,6.99l-5.45,9.13Z"/>
    <path class="cls-4" d="m124.74,358.94l2.36-3.96-3.66-2.55c-3.95-2.75-9.19-1.53-11.73,2.74l-2.36,3.96,3.66,2.55c3.93,2.74,9.2,1.51,11.73-2.74Z"/>
    <path class="cls-1" d="m130.15,354.27l-3.55,5.96c-3.2,5.36-9.82,6.9-14.78,3.45l-5.51-3.84,3.55-5.96c3.2-5.36,9.82-6.9,14.78-3.45l5.51,3.84Zm-17.75,4.14l1.81,1.26c2.92,2.04,6.81,1.13,8.69-2.03l1.17-1.96-1.81-1.26c-2.92-2.04-6.81-1.13-8.69,2.03l-1.17,1.96Z"/>
    <path class="cls-4" d="m149.86,340.07l-6.64,11.14-10.3-7.18c-11.08-7.73-14.27-23.7-7.13-35.68l6.64-11.14,10.3,7.18c11.08,7.73,14.27,23.7,7.13,35.68Z"/>
    <path class="cls-1" d="m151.71,341.36l-7.84,13.14-12.15-8.47c-12.09-8.43-15.58-25.9-7.78-38.97l7.84-13.14,12.15,8.47c12.09,8.43,15.58,25.9,7.78,38.97Zm-9.15,6.55l5.45-9.13c6.48-10.87,3.56-25.4-6.47-32.39l-8.45-5.89-5.45,9.13c-6.48,10.87-3.56,25.4,6.47,32.39l8.45,5.89Z"/>
    <path class="cls-4" d="m142.1,329.84l-2.36,3.96-3.66-2.55c-3.95-2.75-5.08-8.42-2.53-12.69l2.36-3.96,3.66,2.55c3.93,2.74,5.07,8.44,2.53,12.69Z"/>
    <path class="cls-1" d="m143.95,331.13l-3.55,5.96-5.51-3.84c-4.95-3.45-6.39-10.62-3.19-15.98l3.55-5.96,5.51,3.84c4.95,3.45,6.39,10.62,3.19,15.98Zm-4.87-.62l1.17-1.96c1.88-3.16,1.04-7.36-1.88-9.4l-1.81-1.26-1.17,1.96c-1.88,3.16-1.04,7.36,1.88,9.4l1.81,1.26Z"/>
    <path class="cls-4" d="m170.85,386.27l6.64-11.14-10.3-7.18c-11.08-7.73-25.86-4.28-33.01,7.7l-6.64,11.14,10.3,7.18c11.08,7.73,25.86,4.28,33.01-7.7Z"/>
    <path class="cls-1" d="m180.55,374.4l-7.84,13.14c-7.8,13.07-23.96,16.84-36.05,8.41l-12.15-8.47,7.84-13.14c7.8-13.07,23.96-16.84,36.05-8.41l12.15,8.47Zm-49.96,11.68l8.45,5.89c10.05,7.01,23.49,3.85,29.96-6.99l5.45-9.13-8.45-5.89c-10.05-7.01-23.49-3.85-29.96,6.99l-5.45,9.13Z"/>
    <path class="cls-4" d="m159.04,382.85l2.36-3.96-3.66-2.55c-3.95-2.75-9.19-1.53-11.73,2.74l-2.36,3.96,3.66,2.55c3.93,2.74,9.2,1.51,11.73-2.74Z"/>
    <path class="cls-1" d="m164.44,378.18l-3.55,5.96c-3.2,5.36-9.82,6.9-14.78,3.45l-5.51-3.84,3.55-5.96c3.2-5.36,9.82-6.9,14.78-3.45l5.51,3.84Zm-17.75,4.14l1.81,1.26c2.92,2.04,6.81,1.13,8.69-2.03l1.17-1.96-1.81-1.26c-2.92-2.04-6.81-1.13-8.69,2.03l-1.17,1.96Z"/>
    <path class="cls-4" d="m184.15,363.98l-6.64,11.14-10.3-7.18c-11.08-7.73-14.27-23.7-7.13-35.68l6.64-11.14,10.3,7.18c11.08,7.73,14.27,23.7,7.13,35.68Z"/>
    <path class="cls-1" d="m186,365.27l-7.84,13.14-12.15-8.47c-12.09-8.43-15.58-25.9-7.78-38.97l7.84-13.14,12.15,8.47c12.09,8.43,15.58,25.9,7.78,38.97Zm-9.15,6.55l5.45-9.13c6.48-10.87,3.56-25.4-6.47-32.39l-8.45-5.89-5.45,9.13c-6.48,10.87-3.56,25.4,6.47,32.39l8.45,5.89Z"/>
    <path class="cls-4" d="m176.39,353.75l-2.36,3.96-3.66-2.55c-3.95-2.75-5.08-8.42-2.53-12.69l2.36-3.96,3.66,2.55c3.93,2.74,5.07,8.44,2.53,12.69Z"/>
    <path class="cls-1" d="m178.24,355.04l-3.55,5.96-5.51-3.84c-4.95-3.45-6.39-10.62-3.19-15.98l3.55-5.96,5.51,3.84c4.95,3.45,6.39,10.62,3.19,15.98Zm-4.87-.62l1.17-1.96c1.88-3.16,1.04-7.36-1.88-9.4l-1.81-1.26-1.17,1.96c-1.88,3.16-1.04,7.36,1.88,9.4l1.81,1.26Z"/>
    <path class="cls-4" d="m205.14,410.18l6.64-11.14-10.3-7.18c-11.08-7.73-25.86-4.28-33.01,7.7l-6.64,11.14,10.3,7.18c11.08,7.73,25.86,4.28,33.01-7.7Z"/>
    <path class="cls-1" d="m214.84,398.31l-7.84,13.14c-7.8,13.07-23.96,16.84-36.05,8.41l-12.15-8.47,7.84-13.14c7.8-13.07,23.96-16.84,36.05-8.41l12.15,8.47Zm-49.96,11.68l8.45,5.89c10.05,7.01,23.49,3.85,29.96-6.99l5.45-9.13-8.45-5.89c-10.05-7.01-23.49-3.85-29.96,6.99l-5.45,9.13Z"/>
    <path class="cls-4" d="m193.33,406.76l2.36-3.96-3.66-2.55c-3.95-2.75-9.19-1.53-11.73,2.74l-2.36,3.96,3.66,2.55c3.93,2.74,9.2,1.51,11.73-2.74Z"/>
    <path class="cls-1" d="m198.73,402.09l-3.55,5.96c-3.2,5.36-9.82,6.9-14.78,3.45l-5.51-3.84,3.55-5.96c3.2-5.36,9.82-6.9,14.78-3.45l5.51,3.84Zm-17.75,4.14l1.81,1.26c2.92,2.04,6.81,1.13,8.69-2.03l1.17-1.96-1.81-1.26c-2.92-2.04-6.81-1.13-8.69,2.03l-1.17,1.96Z"/>
    <path class="cls-4" d="m218.44,387.89l-6.64,11.14-10.3-7.18c-11.08-7.73-14.27-23.7-7.13-35.68l6.64-11.14,10.3,7.18c11.08,7.73,14.27,23.7,7.13,35.68Z"/>
    <path class="cls-1" d="m220.29,389.18l-7.84,13.14-12.15-8.47c-12.09-8.43-15.58-25.9-7.78-38.97l7.84-13.14,12.15,8.47c12.09,8.43,15.58,25.9,7.78,38.97Zm-9.15,6.55l5.45-9.13c6.48-10.87,3.56-25.4-6.47-32.39l-8.45-5.89-5.45,9.13c-6.48,10.87-3.56,25.4,6.47,32.39l8.45,5.89Z"/>
    <path class="cls-4" d="m210.68,377.66l-2.36,3.96-3.66-2.55c-3.95-2.75-5.08-8.42-2.53-12.69l2.36-3.96,3.66,2.55c3.93,2.74,5.07,8.44,2.53,12.69Z"/>
    <path class="cls-1" d="m212.53,378.95l-3.55,5.96-5.51-3.84c-4.95-3.45-6.39-10.62-3.19-15.98l3.55-5.96,5.51,3.84c4.95,3.45,6.39,10.62,3.19,15.98Zm-4.87-.62l1.17-1.96c1.88-3.16,1.04-7.36-1.88-9.4l-1.81-1.26-1.17,1.96c-1.88,3.16-1.04,7.36,1.88,9.4l1.81,1.26Z"/>
    <path class="cls-4" d="m239.44,434.09l6.64-11.14-10.3-7.18c-11.08-7.73-25.86-4.28-33.01,7.7l-6.64,11.14,10.3,7.18c11.08,7.73,25.86,4.28,33.01-7.7Z"/>
    <path class="cls-1" d="m249.13,422.22l-7.84,13.14c-7.8,13.07-23.96,16.84-36.05,8.41l-12.15-8.47,7.84-13.14c7.8-13.07,23.96-16.84,36.05-8.41l12.15,8.47Zm-49.98,11.66l8.45,5.89c10.05,7.01,23.49,3.85,29.96-6.99l5.45-9.13-8.45-5.89c-10.05-7.01-23.49-3.85-29.96,6.99l-5.45,9.13Z"/>
    <path class="cls-4" d="m227.62,430.67l2.36-3.96-3.66-2.55c-3.95-2.75-9.19-1.53-11.73,2.74l-2.36,3.96,3.66,2.55c3.93,2.74,9.2,1.51,11.73-2.74Z"/>
    <path class="cls-1" d="m233.02,426l-3.55,5.96c-3.2,5.36-9.82,6.9-14.78,3.45l-5.51-3.84,3.55-5.96c3.2-5.36,9.82-6.9,14.78-3.45l5.51,3.84Zm-17.75,4.14l1.81,1.26c2.92,2.04,6.81,1.13,8.69-2.03l1.17-1.96-1.81-1.26c-2.92-2.04-6.81-1.13-8.69,2.03l-1.17,1.96Z"/>
    <path class="cls-4" d="m252.73,411.79l-6.64,11.14-10.3-7.18c-11.08-7.73-14.27-23.7-7.13-35.68l6.64-11.14,10.3,7.18c11.08,7.73,14.27,23.7,7.13,35.68Z"/>
    <path class="cls-1" d="m254.58,413.08l-7.84,13.14-12.15-8.47c-12.09-8.43-15.58-25.9-7.78-38.97l7.84-13.14,12.15,8.47c12.09,8.43,15.58,25.9,7.78,38.97Zm-9.15,6.55l5.45-9.13c6.48-10.87,3.56-25.4-6.47-32.39l-8.45-5.89-5.45,9.13c-6.48,10.87-3.56,25.4,6.47,32.39l8.45,5.89Z"/>
    <path class="cls-4" d="m244.98,401.57l-2.36,3.96-3.66-2.55c-3.95-2.75-5.08-8.42-2.53-12.69l2.36-3.96,3.66,2.55c3.93,2.74,5.07,8.44,2.53,12.69Z"/>
    <path class="cls-1" d="m246.83,402.86l-3.55,5.96-5.51-3.84c-4.95-3.45-6.39-10.62-3.19-15.98l3.55-5.96,5.51,3.84c4.95,3.45,6.39,10.62,3.19,15.98Zm-4.87-.62l1.17-1.96c1.88-3.16,1.04-7.36-1.88-9.4l-1.81-1.26-1.17,1.96c-1.88,3.16-1.04,7.36,1.88,9.4l1.81,1.26Z"/>
  </g>
  <g>
    <path class="cls-4" d="m160.88,201.52l14.73-5.44-5.03-15.93c-5.41-17.13-22.65-26.28-38.5-20.43l-14.73,5.44,5.03,15.93c5.41,17.13,22.65,26.28,38.5,20.43Z"/>
    <path class="cls-2" d="m179.16,197.96l-17.38,6.42c-17.29,6.39-36.15-3.62-42.05-22.31l-5.94-18.79,17.38-6.42c17.29-6.39,36.15,3.62,42.05,22.31l5.94,18.79Zm-58.26-30.91l4.13,13.06c4.91,15.54,20.6,23.84,34.95,18.54l12.08-4.46-4.13-13.06c-4.91-15.54-20.6-23.84-34.95-18.54l-12.08,4.46Z"/>
    <path class="cls-5" d="m161.42,151.16c33.64,105.8,66.64,210.66,100.03,316.65"/>
    <path class="cls-2" d="m263.32,470.53c0-1.32.38-2.39.96-3.21l-100.21-317.14-5.29,1.95,104.48,330.65c0-4.08.05-8.16.06-12.26Z"/>
    <path class="cls-4" d="m132.08,159.73l-14.73,5.44,58.26,30.91-5.03-15.93c-5.41-17.13-22.65-26.28-38.5-20.43Z"/>
    <path class="cls-2" d="m176.52,198.94c-.68.25-1.44.21-2.14-.13l-58.25-30.95c-1.03-.54-1.61-1.68-1.57-2.9.07-1.23.82-2.29,1.88-2.68l14.73-5.44c17.29-6.39,36.15,3.62,42.05,22.31l5.04,15.96c.36,1.14.05,2.43-.81,3.25-.24.27-.58.46-.93.59Zm-51.88-33.27l46.15,24.49-2.85-9.03c-4.91-15.54-20.6-23.84-34.95-18.54l-8.35,3.08Z"/>
    <path class="cls-4" d="m190.37,190.63l-14.76,5.45-5.03-15.93c-5.41-17.13,3.05-35.77,18.89-41.62l14.73-5.44,5.03,15.93c5.44,17.12-3.02,35.76-18.86,41.61Z"/>
    <path class="cls-2" d="m191.28,193.49l-17.41,6.43-5.94-18.79c-5.91-18.69,3.35-39.08,20.64-45.46l17.38-6.42,5.94,18.79c5.94,18.68-3.35,39.08-20.61,45.45Zm-13.92-1.25l12.08-4.46c14.38-5.31,22.05-22.27,17.15-37.79l-4.13-13.06-12.08,4.46c-14.38,5.31-22.05,22.27-17.15,37.79l4.13,13.06Z"/>
    <path class="cls-4" d="m189.5,138.52l14.73-5.44-28.62,63-5.03-15.93c-5.41-17.13,3.05-35.77,18.92-41.63Z"/>
    <path class="cls-2" d="m176.52,198.94c-.35.13-.7.19-1.07.15-1.14-.08-2.12-.89-2.48-2.03l-5.03-15.93c-5.91-18.69,3.35-39.08,20.64-45.46l14.73-5.44c1.06-.39,2.25-.05,3,.88.75.93.9,2.22.4,3.33l-28.59,62.99c-.3.71-.89,1.25-1.59,1.51Zm13.89-57.56c-14.38,5.31-22.05,22.27-17.15,37.79l2.85,9.03,22.65-49.9-8.35,3.08Z"/>
    <path class="cls-4" d="m168.3,136.05l-6.85,15.1-13.96-7.41c-15.03-7.97-21.24-27.62-13.86-43.87l6.85-15.1,13.96,7.41c15.02,7.94,21.23,27.59,13.86,43.87Z"/>
    <path class="cls-2" d="m162.69,155.2l-16.49-8.75c-16.41-8.71-23.2-30.19-15.15-47.94l8.09-17.83,16.49,8.75c16.41,8.71,23.2,30.19,15.15,47.94l-8.09,17.83Zm-20.98-66.4l-5.63,12.41c-6.68,14.71-1.02,32.61,12.59,39.83l11.48,6.09,5.63-12.41c6.68-14.71,1.02-32.61-12.59-39.83l-11.48-6.09Z"/>
    <path class="cls-4" d="m133.58,99.86l6.85-15.1,20.98,66.4-13.96-7.41c-15.04-8.01-21.25-27.65-13.87-43.9Z"/>
    <path class="cls-2" d="m162.32,154.02c-.68.25-1.44.21-2.14-.13l-13.96-7.41c-7.93-4.21-13.88-11.52-16.75-20.58-2.86-9.06-2.28-18.75,1.6-27.36h0l6.85-15.1c.5-1.11,1.55-1.74,2.68-1.7,1.14.08,2.12.89,2.48,2.03l20.98,66.4c.36,1.14.05,2.43-.81,3.25-.24.27-.58.46-.93.59Zm-26.22-52.83c-3.23,7.12-3.73,15.22-1.35,22.75,2.38,7.53,7.32,13.59,13.94,17.11l7.89,4.19-16.62-52.61-3.86,8.56Z"/>
    <path class="cls-4" d="m177.63,254.54l14.73-5.44-5.03-15.93c-5.41-17.13-22.65-26.28-38.5-20.43l-14.73,5.44,5.03,15.93c5.41,17.13,22.65,26.28,38.5,20.43Z"/>
    <path class="cls-2" d="m195.92,250.98l-17.38,6.42c-17.29,6.39-36.15-3.62-42.05-22.31l-5.94-18.79,17.38-6.42c17.29-6.39,36.15,3.62,42.05,22.31l5.94,18.79Zm-58.26-30.91l4.13,13.06c4.91,15.54,20.6,23.84,34.95,18.54l12.08-4.46-4.13-13.06c-4.91-15.54-20.6-23.84-34.95-18.54l-12.08,4.46Z"/>
    <path class="cls-4" d="m148.83,212.75l-14.73,5.44,58.26,30.91-5.03-15.93c-5.41-17.13-22.65-26.28-38.5-20.43Z"/>
    <path class="cls-2" d="m193.27,251.96c-.68.25-1.44.21-2.14-.13l-58.25-30.95c-1.03-.54-1.61-1.68-1.57-2.9.07-1.23.82-2.29,1.88-2.68l14.73-5.44c17.29-6.39,36.15,3.62,42.05,22.31l5.03,15.93c.36,1.14.05,2.43-.81,3.25-.23.3-.57.49-.92.62Zm-51.88-33.27l46.15,24.49-2.85-9.03c-4.91-15.54-20.6-23.84-34.95-18.54l-8.35,3.08Z"/>
    <path class="cls-4" d="m207.13,243.65l-14.76,5.45-5.03-15.93c-5.41-17.13,3.05-35.77,18.89-41.62l14.73-5.44,5.03,15.93c5.44,17.12-3.02,35.76-18.86,41.61Z"/>
    <path class="cls-2" d="m208.03,246.51l-17.41,6.43-5.94-18.79c-5.91-18.69,3.35-39.08,20.64-45.46l17.38-6.42,5.94,18.79c5.94,18.68-3.35,39.08-20.61,45.45Zm-13.92-1.25l12.08-4.46c14.38-5.31,22.05-22.27,17.15-37.79l-4.13-13.06-12.08,4.46c-14.38,5.31-22.05,22.27-17.15,37.79l4.13,13.06Z"/>
    <path class="cls-4" d="m206.26,191.54l14.73-5.44-28.62,63-5.03-15.93c-5.41-17.13,3.05-35.77,18.92-41.63Z"/>
    <path class="cls-2" d="m193.27,251.96c-.35.13-.7.19-1.07.15-1.14-.08-2.12-.89-2.48-2.03l-5.03-15.93c-5.91-18.69,3.35-39.08,20.64-45.46l14.73-5.44c1.06-.39,2.25-.05,3,.88.75.93.9,2.22.4,3.33l-28.59,62.99c-.3.71-.89,1.25-1.59,1.51Zm13.89-57.56c-14.38,5.31-22.05,22.27-17.15,37.79l2.85,9.03,22.65-49.9-8.35,3.08Z"/>
    <path class="cls-4" d="m194.39,307.56l14.73-5.44-5.03-15.93c-5.41-17.13-22.65-26.28-38.5-20.43l-14.73,5.44,5.03,15.93c5.41,17.13,22.65,26.28,38.5,20.43Z"/>
    <path class="cls-2" d="m212.67,304.01l-17.38,6.42c-17.29,6.39-36.15-3.62-42.05-22.31l-5.94-18.79,17.38-6.42c17.29-6.39,36.15,3.62,42.05,22.31l5.94,18.79Zm-58.26-30.91l4.13,13.06c4.91,15.54,20.6,23.84,34.95,18.54l12.08-4.46-4.13-13.06c-4.91-15.54-20.6-23.84-34.95-18.54l-12.08,4.46Z"/>
    <path class="cls-4" d="m165.59,265.77l-14.73,5.44,58.26,30.91-5.03-15.93c-5.41-17.13-22.65-26.28-38.5-20.43Z"/>
    <path class="cls-2" d="m210.02,304.98c-.68.25-1.44.21-2.14-.13l-58.25-30.95c-1.03-.54-1.61-1.68-1.57-2.9.07-1.23.82-2.29,1.88-2.68l14.73-5.44c17.29-6.39,36.15,3.62,42.05,22.31l5.03,15.93c.36,1.14.05,2.43-.81,3.25-.23.3-.57.49-.92.62Zm-51.88-33.27l46.15,24.49-2.85-9.03c-4.91-15.54-20.6-23.84-34.95-18.54l-8.35,3.08Z"/>
    <path class="cls-4" d="m223.88,296.67l-14.76,5.45-5.03-15.93c-5.41-17.13,3.05-35.77,18.89-41.62l14.73-5.44,5.03,15.93c5.44,17.12-3.02,35.76-18.86,41.61Z"/>
    <path class="cls-2" d="m224.78,299.53l-17.41,6.43-5.94-18.79c-5.91-18.69,3.35-39.08,20.64-45.46l17.38-6.42,5.94,18.79c5.94,18.68-3.35,39.08-20.61,45.45Zm-13.92-1.25l12.08-4.46c14.38-5.31,22.05-22.27,17.15-37.79l-4.13-13.06-12.08,4.46c-14.38,5.31-22.05,22.27-17.15,37.79l4.13,13.06Z"/>
    <path class="cls-4" d="m223.01,244.56l14.73-5.44-28.62,63-5.03-15.93c-5.41-17.13,3.05-35.77,18.92-41.63Z"/>
    <path class="cls-2" d="m210.02,304.98c-.35.13-.7.19-1.07.15-1.14-.08-2.12-.89-2.48-2.03l-5.03-15.93c-5.91-18.69,3.35-39.08,20.64-45.46l14.73-5.44c1.06-.39,2.25-.05,3,.88.75.93.9,2.22.4,3.33l-28.56,62.98c-.33.72-.91,1.26-1.62,1.52Zm13.89-57.56c-14.38,5.31-22.05,22.27-17.15,37.79l2.85,9.03,22.65-49.9-8.35,3.08Z"/>
    <path class="cls-4" d="m211.14,360.59l14.73-5.44-5.03-15.93c-5.41-17.13-22.65-26.28-38.5-20.43l-14.73,5.44,5.03,15.93c5.41,17.13,22.65,26.28,38.5,20.43Z"/>
    <path class="cls-2" d="m229.43,357.03l-17.38,6.42c-17.29,6.39-36.15-3.62-42.05-22.31l-5.94-18.79,17.38-6.42c17.29-6.39,36.15,3.62,42.05,22.31l5.94,18.79Zm-58.27-30.91l4.13,13.06c4.91,15.54,20.6,23.84,34.95,18.54l12.08-4.46-4.13-13.06c-4.91-15.54-20.6-23.84-34.95-18.54l-12.08,4.46Z"/>
    <path class="cls-4" d="m182.34,318.79l-14.73,5.44,58.26,30.91-5.03-15.93c-5.41-17.13-22.65-26.28-38.5-20.43Z"/>
    <path class="cls-2" d="m226.78,358.01c-.68.25-1.44.21-2.14-.13l-58.25-30.95c-1.03-.54-1.61-1.68-1.57-2.9.07-1.23.82-2.29,1.88-2.68l14.73-5.44c17.29-6.39,36.15,3.62,42.05,22.31l5.03,15.93c.36,1.14.05,2.43-.81,3.25-.23.3-.57.49-.92.62Zm-51.88-33.27l46.15,24.49-2.85-9.03c-4.91-15.54-20.6-23.84-34.95-18.54l-8.35,3.08Z"/>
    <path class="cls-4" d="m240.64,349.69l-14.76,5.45-5.03-15.93c-5.41-17.13,3.05-35.77,18.89-41.62l14.73-5.44,5.03,15.93c5.44,17.12-3.02,35.76-18.86,41.61Z"/>
    <path class="cls-2" d="m241.54,352.55l-17.41,6.43-5.94-18.79c-5.91-18.69,3.35-39.08,20.64-45.46l17.38-6.42,5.94,18.79c5.94,18.68-3.35,39.08-20.61,45.45Zm-13.92-1.25l12.08-4.46c14.38-5.31,22.05-22.27,17.15-37.79l-4.13-13.06-12.08,4.46c-14.38,5.31-22.05,22.27-17.15,37.79l4.13,13.06Z"/>
    <path class="cls-4" d="m239.77,297.59l14.73-5.44-28.62,63-5.03-15.93c-5.41-17.13,3.05-35.77,18.92-41.63Z"/>
    <path class="cls-2" d="m226.78,358.01c-.35.13-.7.19-1.07.15-1.14-.08-2.12-.89-2.48-2.03l-5.03-15.93c-5.91-18.69,3.35-39.08,20.64-45.46l14.73-5.44c1.06-.39,2.25-.05,3,.88s.9,2.22.4,3.33l-28.59,62.99c-.3.71-.89,1.25-1.59,1.51Zm13.89-57.56c-14.38,5.31-22.05,22.27-17.15,37.79l2.85,9.03,22.65-49.9-8.35,3.08Z"/>
    <path class="cls-4" d="m227.9,413.61l14.73-5.44-5.03-15.93c-5.41-17.13-22.65-26.28-38.5-20.43l-14.73,5.44,5.03,15.93c5.41,17.13,22.65,26.28,38.5,20.43Z"/>
    <path class="cls-2" d="m246.18,410.05l-17.38,6.42c-17.29,6.39-36.15-3.62-42.05-22.31l-5.94-18.79,17.38-6.42c17.29-6.39,36.15,3.62,42.05,22.31l5.94,18.79Zm-58.26-30.91l4.13,13.06c4.91,15.54,20.6,23.84,34.95,18.54l12.08-4.46-4.13-13.06c-4.91-15.54-20.6-23.84-34.95-18.54l-12.08,4.46Z"/>
    <path class="cls-4" d="m199.1,371.82l-14.73,5.44,58.26,30.91-5.03-15.93c-5.41-17.13-22.65-26.28-38.5-20.43Z"/>
    <path class="cls-2" d="m243.53,411.03c-.68.25-1.44.21-2.14-.13l-58.25-30.95c-1.03-.54-1.61-1.68-1.57-2.9.07-1.23.82-2.29,1.88-2.68l14.73-5.44c17.29-6.39,36.15,3.62,42.05,22.31l5.03,15.93c.36,1.14.05,2.43-.81,3.25-.23.3-.57.49-.92.62Zm-51.88-33.27l46.15,24.49-2.85-9.03c-4.91-15.54-20.6-23.84-34.95-18.54l-8.35,3.08Z"/>
    <path class="cls-4" d="m260.25,400.15c.7-14.85.39-31.67,5.38-46.02-.5-.35-.99-.74-1.45-1.18-1.31-1.25-2.27-2.65-2.89-4.1l-4.8,1.77c-15.85,5.85-24.31,24.49-18.89,41.62l5.03,15.93,14.76-5.45c1.02-.38,2.01-.81,2.97-1.3-.08-.4-.13-.82-.1-1.27Z"/>
    <path class="cls-2" d="m260.25,400.15c.03-.69.06-1.39.09-2.09-1.23.7-2.53,1.3-3.89,1.8l-12.08,4.46-4.13-13.06c-4.9-15.51,2.77-32.48,17.15-37.79l5.46-2.02c-1.34-1.72-2.12-3.62-2.34-5.53l-4.94,1.82c-17.29,6.39-26.54,26.77-20.64,45.46l5.94,18.79,17.41-6.43c1.22-.45,2.39-.98,3.52-1.56-.99-.9-1.64-2.2-1.56-3.87Z"/>
    <path class="cls-4" d="m265.63,354.13c-.5-.35-.99-.74-1.45-1.18-1.31-1.25-2.27-2.65-2.89-4.1l-4.77,1.76c-15.88,5.86-24.34,24.5-18.92,41.63l5.03,15.93,20.66-45.47c.61-2.93,1.38-5.8,2.34-8.57Z"/>
    <path class="cls-2" d="m265.63,354.12c-.39-.28-.77-.58-1.14-.91l-21.37,47.07-2.85-9.03c-4.9-15.51,2.77-32.48,17.15-37.79l5.43-2.01c-1.34-1.72-2.12-3.62-2.34-5.53l-4.94,1.82c-17.29,6.39-26.54,26.77-20.64,45.46l5.03,15.93c.36,1.14,1.34,1.95,2.48,2.03.37.04.72-.02,1.07-.15.71-.26,1.29-.8,1.59-1.51l16.58-36.52c.7-6.51,1.86-12.9,3.93-18.87Z"/>
    <path class="cls-4" d="m244.65,466.63l14.73-5.44-5.03-15.93c-5.41-17.13-22.65-26.28-38.5-20.43l-14.73,5.44,5.03,15.93c5.41,17.13,22.65,26.28,38.5,20.43Z"/>
    <path class="cls-2" d="m262.93,463.07l-17.38,6.42c-17.29,6.39-36.15-3.62-42.05-22.31l-5.94-18.79,17.38-6.42c17.29-6.39,36.15,3.62,42.05,22.31l5.94,18.79Zm-58.28-30.94l4.13,13.06c4.91,15.54,20.6,23.84,34.95,18.54l12.08-4.46-4.13-13.06c-4.91-15.54-20.6-23.84-34.95-18.54l-12.08,4.46Z"/>
    <path class="cls-4" d="m215.84,424.81l-14.73,5.44,58.28,30.94-5.03-15.93c-5.41-17.13-22.66-26.31-38.51-20.46Z"/>
    <path class="cls-2" d="m260.29,464.05c-.68.25-1.44.21-2.14-.13l-58.25-30.95c-1.03-.54-1.61-1.68-1.57-2.9.04-1.22.82-2.29,1.88-2.68l14.73-5.44c17.29-6.39,36.15,3.62,42.05,22.31l5.03,15.93c.36,1.14.05,2.43-.81,3.25-.23.3-.57.49-.92.62Zm-51.89-33.3l46.15,24.49-2.85-9.03c-4.91-15.54-20.6-23.84-34.95-18.54l-8.35,3.08Z"/>
    <path class="cls-4" d="m267.39,450.17c.19-7.16.54-14.3,1.04-21.43-1.5-1.25-2.51-3.34-2.14-5.68.28-1.82.74-3.59,1.27-5.34-2.22-.32-4.25-2.02-4.25-5.15v-2.78c-9.14,8.47-13.1,22.4-8.97,35.47l5.03,15.93,9.03-3.33c0-.54,0-1.08,0-1.62,0-.8.15-1.5.39-2.11-.89-.85-1.46-2.17-1.41-3.96Z"/>
    <path class="cls-2" d="m261.13,457.35l-4.13-13.06c-3.47-10.99-.63-22.71,6.44-30.5-.07-.38-.12-.79-.12-1.22v-6.64c-11.25,9.04-16.38,25.22-11.61,40.32l5.94,18.79,10.77-3.98c0-1.6-.02-3.21,0-4.81,0-.61.09-1.16.24-1.67l-7.52,2.78Z"/>
    <path class="cls-4" d="m266.29,423.06c.28-1.82.74-3.59,1.27-5.34-2.22-.32-4.25-2.02-4.25-5.15v-2.81c-9.15,8.49-13.09,22.43-8.97,35.5l5.03,15.93,8.26-18.19c.2-4.76.46-9.51.79-14.26-1.5-1.25-2.51-3.34-2.14-5.68Z"/>
    <path class="cls-2" d="m259.87,453.27l-2.85-9.03c-3.47-10.98-.64-22.68,6.41-30.47-.07-.38-.11-.78-.11-1.21v-6.64c-11.25,9.04-16.38,25.22-11.61,40.32l5.03,15.93c.36,1.14,1.34,1.95,2.48,2.03.37.04.72-.02,1.07-.15.71-.26,1.29-.8,1.59-1.51l5.51-12.15c0-.08,0-.15,0-.22.13-4.96.35-9.9.63-14.84l-8.15,17.95Z"/>
  </g>
  <g>
    <path class="cls-4" d="m258.14,177.83l12.25.35.32-13.25c.34-14.25-10.06-26.11-23.25-26.48l-12.25-.35-.32,13.25c-.34,14.25,10.06,26.11,23.25,26.48Z"/>
    <path class="cls-1" d="m272.56,180.62l-14.45-.41c-14.38-.41-25.76-13.37-25.39-28.92l.38-15.63,14.45.41c14.38.41,25.76,13.37,25.39,28.92l-.38,15.63Zm-35.2-40.07l-.26,10.87c-.31,12.93,9.17,23.7,21.1,24.04l10.05.28.26-10.87c.31-12.93-9.17-23.7-21.1-24.04l-10.05-.28Z"/>
    <path class="cls-4" d="m254.7,165.14l4.35.12.11-4.71c.12-5.08-3.57-9.28-8.26-9.41l-4.35-.12-.11,4.71c-.12,5.05,3.59,9.28,8.26,9.41Z"/>
    <path class="cls-1" d="m261.2,167.71l-6.55-.18c-5.89-.17-10.56-5.48-10.41-11.85l.17-7.09,6.55.18c5.89.17,10.56,5.48,10.41,11.85l-.17,7.09Zm-12.5-14.24l-.06,2.33c-.09,3.75,2.65,6.87,6.12,6.97l2.15.06.06-2.33c.09-3.75-2.65-6.87-6.12-6.97l-2.15-.06Z"/>
    <path class="cls-5" d="m264.82,419.38c-.23,11.38-.82,22.75-1.04,34.13"/>
    <path class="cls-5" d="m267.17,299.74c-.24,10.9-.41,21.81-.47,32.71"/>
    <path class="cls-5" d="m271.32,140.82c-.23,38.66-1.23,77.42-2.94,115.96"/>
    <path class="cls-1" d="m265.78,278.94c.69-.86,1.47-1.71,2.32-2.52-.77-.08-1.52-.2-2.25-.34l-.07,2.86Z"/>
    <path class="cls-1" d="m270.44,268.43l.05-2.23c-.86.46-1.71.93-2.55,1.43-.47.27-.65.48-.82.74.1,0,.21,0,.35,0,.97-.05,1.96,0,2.97.08Z"/>
    <path class="cls-1" d="m270.72,256.97l2.8-116.08-4.4-.12-2.85,118.17c1.43-.71,2.92-1.36,4.45-1.97Z"/>
    <path class="cls-1" d="m268.81,329.89c-.6-.58-1.02-1.27-1.12-2.06-.89-7.06.91-14.07,1.36-21.11.04-.61.22-1.15.51-1.61l.07-2.73c-.08-.1-.16-.19-.23-.3-1.59-2.47-2.03-5.02-1.9-7.6-.48-.6-.78-1.3-.82-2.01-.02-.37-.02-.74-.01-1.11-.41-.1-.8-.25-1.16-.42l-1.11,46.04c.29-.24.59-.47.92-.69,1.12-.76,2.31-1.4,3.55-1.95v-.56c-.02-1.29-.04-2.59-.04-3.88Z"/>
    <path class="cls-1" d="m265.63,354.12c-.5-.35-.99-.73-1.45-1.18-.06-.06-.11-.12-.18-.19l-.18,7.58c.51-2.11,1.11-4.19,1.81-6.22Z"/>
    <path class="cls-1" d="m266.77,420.66l.07-3.09c-1.92-.56-3.53-2.21-3.53-5v-7.59c-.19-.08-.38-.18-.57-.29l-1.18,48.75,4.4.12.66-27.34c-.37-.95-.52-2.03-.34-3.17.13-.81.29-1.61.48-2.4Z"/>
    <path class="cls-4" d="m282.67,178.52l-12.25-.35.32-13.25c.34-14.25,11.31-25.5,24.49-25.13l12.25.35-.32,13.25c-.34,14.25-11.31,25.5-24.49,25.13Z"/>
    <path class="cls-1" d="m282.61,180.9l-14.45-.41.38-15.63c.38-15.55,12.37-27.85,26.75-27.45l14.45.41-.38,15.63c-.38,15.55-12.37,27.85-26.75,27.45Zm-9.94-5.04l10.05.28c11.96.34,21.92-9.91,22.23-22.81l.26-10.87-10.05-.28c-11.96-.34-21.92,9.91-22.23,22.81l-.26,10.87Z"/>
    <path class="cls-4" d="m286.71,166.04l-4.35-.12.11-4.71c.12-5.08,4.01-9.07,8.71-8.93l4.35.12-.11,4.71c-.12,5.05-4.04,9.07-8.71,8.93Z"/>
    <path class="cls-1" d="m286.66,168.42l-6.55-.18.17-7.09c.15-6.37,5.07-11.42,10.97-11.25l6.55.18-.17,7.09c-.15,6.37-5.07,11.42-10.97,11.25Zm-2.04-4.82l2.15.06c3.47.1,6.36-2.86,6.45-6.62l.06-2.33-2.15-.06c-3.47-.1-6.36,2.86-6.45,6.62l-.06,2.33Z"/>
    <path class="cls-4" d="m280.2,131.71l-8.88,9.12-8.43-9.6c-9.07-10.34-8.68-26.67.88-36.48l8.88-9.12,8.43,9.6c9.08,10.31,8.68,26.65-.88,36.48Z"/>
    <path class="cls-1" d="m271.24,144.18l-9.96-11.34c-9.91-11.29-9.48-29.16.96-39.87l10.49-10.76,9.96,11.34c9.91,11.29,9.48,29.16-.96,39.87l-10.49,10.76Zm1.33-55.23l-7.3,7.49c-8.66,8.88-9.02,23.77-.8,33.13l6.93,7.89,7.3-7.49c8.66-8.88,9.02-23.77.8-33.13l-6.93-7.89Z"/>
    <path class="cls-4" d="m274.88,119.78l-3.16,3.24-3-3.42c-3.22-3.66-3.08-9.48.31-12.95l3.16-3.24,3,3.42c3.24,3.66,3.1,9.45-.31,12.95Z"/>
    <path class="cls-1" d="m271.67,126.39l-4.53-5.15c-4.05-4.61-3.87-11.94.39-16.34l4.77-4.89,4.53,5.15c4.05,4.61,3.87,11.94-.39,16.34l-4.77,4.89Zm.47-19.62l-1.56,1.6c-1.23,1.26-1.91,2.94-1.95,4.76s.58,3.53,1.72,4.86l1.48,1.68,1.56-1.6c1.23-1.26,1.91-2.94,1.95-4.76s-.58-3.53-1.72-4.86l-1.48-1.68Z"/>
    <path class="cls-4" d="m257.08,221.93l12.25.35.32-13.25c.34-14.25-10.06-26.11-23.25-26.48l-12.25-.35-.32,13.25c-.34,14.25,10.06,26.11,23.25,26.48Z"/>
    <path class="cls-1" d="m271.5,224.72l-14.45-.41c-14.38-.41-25.76-13.37-25.39-28.92l.38-15.63,14.45.41c14.38.41,25.76,13.37,25.39,28.92l-.38,15.63Zm-35.2-40.07l-.26,10.87c-.31,12.93,9.17,23.7,21.1,24.04l10.05.28.26-10.87c.31-12.93-9.17-23.7-21.1-24.04l-10.05-.28Z"/>
    <path class="cls-4" d="m253.64,209.24l4.35.12.11-4.71c.12-5.08-3.57-9.28-8.26-9.41l-4.35-.12-.11,4.71c-.12,5.05,3.59,9.28,8.26,9.41Z"/>
    <path class="cls-1" d="m260.14,211.81l-6.55-.18c-5.89-.17-10.56-5.48-10.41-11.85l.17-7.09,6.55.18c5.89.17,10.56,5.48,10.41,11.85l-.17,7.09Zm-12.5-14.24l-.06,2.33c-.09,3.75,2.65,6.87,6.12,6.97l2.15.06.06-2.33c.09-3.75-2.65-6.87-6.12-6.97l-2.15-.06Z"/>
    <path class="cls-4" d="m281.61,222.62l-12.25-.35.32-13.25c.34-14.25,11.31-25.5,24.49-25.13l12.25.35-.32,13.25c-.34,14.25-11.31,25.5-24.49,25.13Z"/>
    <path class="cls-1" d="m281.55,225l-14.45-.41.38-15.63c.38-15.55,12.37-27.85,26.75-27.45l14.45.41-.38,15.63c-.38,15.55-12.37,27.85-26.75,27.45Zm-9.94-5.04l10.05.28c11.96.34,21.92-9.91,22.23-22.81l.26-10.87-10.05-.28c-11.96-.34-21.92,9.91-22.23,22.81l-.26,10.87Z"/>
    <path class="cls-4" d="m285.65,210.14l-4.35-.12.11-4.71c.12-5.08,4.01-9.07,8.71-8.93l4.35.12-.11,4.71c-.12,5.05-4.04,9.07-8.71,8.93Z"/>
    <path class="cls-1" d="m285.59,212.52l-6.55-.18.17-7.09c.15-6.37,5.07-11.42,10.97-11.25l6.55.18-.17,7.09c-.15,6.37-5.07,11.42-10.97,11.25Zm-2.04-4.82l2.15.06c3.47.1,6.36-2.86,6.45-6.62l.06-2.33-2.15-.06c-3.47-.1-6.36,2.86-6.45,6.62l-.06,2.33Z"/>
    <path class="cls-4" d="m261.58,261.64c2.1-1.44,4.43-2.66,6.88-3.74l.12-4.78c.34-14.25-10.06-26.11-23.25-26.48l-12.25-.35-.32,13.25c-.34,14.25,10.06,26.11,23.25,26.48l1.7.05c.73-1.64,2.06-3.19,3.87-4.44Z"/>
    <path class="cls-1" d="m267.94,267.62c-.47.27-.65.48-.82.74.1,0,.21,0,.35,0,.97-.05,1.96,0,2.97.08l.05-2.23c-.86.46-1.71.93-2.55,1.43Z"/>
    <path class="cls-1" d="m259.23,263.74l-3.16-.09c-11.93-.34-21.41-11.11-21.1-24.04l.26-10.87,10.05.28c11.93.34,21.41,11.11,21.1,24.04l-.14,5.88c1.44-.71,2.94-1.37,4.48-1.98l.09-3.77c.38-15.55-11.01-28.51-25.39-28.92l-14.45-.41-.38,15.62c-.38,15.55,11.01,28.51,25.39,28.92l1.12.03c.1-1.61.86-3.25,2.13-4.7Z"/>
    <path class="cls-4" d="m252.57,253.34l4.35.12.11-4.71c.12-5.08-3.57-9.28-8.26-9.41l-4.35-.12-.11,4.71c-.12,5.05,3.59,9.28,8.26,9.41Z"/>
    <path class="cls-1" d="m259.07,255.9l-6.55-.18c-5.89-.17-10.56-5.48-10.41-11.85l.17-7.09,6.55.18c5.89.17,10.56,5.48,10.41,11.85l-.17,7.09Zm-12.5-14.24l-.06,2.33c-.09,3.75,2.65,6.87,6.12,6.97l2.15.06.06-2.33c.09-3.75-2.65-6.87-6.12-6.97l-2.15-.06Z"/>
    <path class="cls-4" d="m273.56,265.87c-.09-.37-.15-.74-.16-1.11-1.14.52-2.23,1.08-3.32,1.67l2.85.08c.18-.24.39-.45.63-.64Z"/>
    <path class="cls-4" d="m283.93,252.44s.03-.01.05-.02c4.45-2.44,9.51-4.13,13.54-4.48.61-.26,1.29-.45,2.06-.52,1.35-.13,3.01-.29,4.78-.38.39-1.75.63-3.57.67-5.44l.32-13.25-12.25-.35c-13.18-.37-24.15,10.88-24.49,25.13l-.11,4.77c4.92-2.16,10.35-3.76,15.44-5.46Z"/>
    <path class="cls-1" d="m271.75,268.53c.2-.37.41-.74.65-1.09.25-.65.65-1.16,1.15-1.56-.08-.37-.14-.74-.15-1.12-1.9.87-3.67,1.82-5.46,2.86-.47.27-.65.48-.82.74.1,0,.21,0,.35,0,1.39-.07,2.82.08,4.27.17Z"/>
    <path class="cls-1" d="m270.72,256.97l.09-3.77c.31-12.9,10.27-23.15,22.23-22.81l10.05.28-.26,10.87c-.05,1.96-.32,3.86-.79,5.67,1.42-.12,2.99-.22,4.59-.24.35-1.71.55-3.48.6-5.3l.38-15.63-14.45-.41c-14.38-.41-26.37,11.9-26.75,27.45l-.14,5.86c1.43-.71,2.92-1.36,4.45-1.97Z"/>
    <path class="cls-4" d="m283.93,252.44s.03-.01.05-.02c2.74-1.51,5.71-2.72,8.53-3.52.47-1.1.75-2.31.78-3.6l.11-4.71-4.35-.12c-4.7-.13-8.58,3.86-8.71,8.93l-.1,4.23c1.24-.4,2.47-.8,3.69-1.21Z"/>
    <path class="cls-1" d="m283.93,252.44s.03-.01.05-.02c.36-.2.73-.38,1.1-.57-.15,0-.29.02-.44.01l-2.15-.06.06-2.33c.09-3.75,2.98-6.72,6.45-6.62l2.15.06-.06,2.33c-.05,1.91-.82,3.61-2.02,4.81,2.04-.79,4.08-1.38,5.99-1.75.25-.94.41-1.92.44-2.94l.17-7.09-6.55-.18c-5.89-.17-10.81,4.88-10.97,11.25l-.12,5.02c1.99-.65,3.97-1.28,5.91-1.93Z"/>
    <path class="cls-4" d="m267.48,294.99c-.01-.19-.02-.39-.03-.58-.45-.59-.74-1.26-.78-1.95-.02-.37-.02-.74-.01-1.11-1.16-.28-2.2-.84-2.71-1.69-1.44-2.4-1.35-4.86-.32-7.25-4.15-6.84-11.22-11.44-19.35-11.67l-12.25-.35-.32,13.25c-.34,14.25,10.06,26.11,23.25,26.48l12.25.35.32-13.25c0-.24,0-.48,0-.72-.04-.5-.05-1.01-.04-1.52Z"/>
    <path class="cls-1" d="m269.05,306.72c.04-.61.22-1.15.51-1.61l.07-2.73c-.08-.1-.16-.19-.23-.3-1.59-2.47-2.03-5.02-1.9-7.6-.48-.6-.78-1.3-.82-2.01-.02-.37-.02-.74-.01-1.11-.81-.2-1.55-.54-2.11-1.01.55,2.17.82,4.46.77,6.82l-.26,10.87-10.05-.28c-11.93-.34-21.41-11.11-21.1-24.04l.26-10.87,10.05.28c8.13.23,15.11,5.3,18.65,12.59.04-1.88.79-3.75,2.02-5.56-4.6-6.94-12.04-11.55-20.52-11.79l-14.45-.41-.38,15.63c-.38,15.55,11.01,28.51,25.39,28.92l13.49.38c.26-2.06.51-4.11.64-6.17Z"/>
    <path class="cls-4" d="m251.51,297.44l4.35.12.11-4.71c.12-5.08-3.57-9.28-8.26-9.41l-4.35-.12-.11,4.71c-.12,5.05,3.59,9.28,8.26,9.41Z"/>
    <path class="cls-1" d="m258.01,300l-6.55-.18c-5.89-.17-10.56-5.48-10.41-11.85l.17-7.09,6.55.18c5.89.17,10.56,5.48,10.41,11.85l-.17,7.09Zm-12.5-14.24l-.06,2.33c-.09,3.75,2.65,6.87,6.12,6.97l2.15.06.06-2.33c.09-3.75-2.65-6.87-6.12-6.97l-2.15-.06Z"/>
    <path class="cls-4" d="m269.05,306.72c.08-1.24.73-2.17,1.67-2.79.02-.21.04-.43.06-.64-.57-.31-1.06-.71-1.39-1.21-1.1-1.7-1.64-3.44-1.83-5.2,0,.12-.01.24-.02.35l-.32,13.25,1.47.04c.14-1.27.27-2.53.35-3.8Z"/>
    <path class="cls-1" d="m269.05,306.72c.04-.61.22-1.15.51-1.61l.07-2.73c-.08-.1-.16-.19-.23-.3-1.59-2.47-2.03-5.02-1.9-7.6-.48-.6-.78-1.3-.82-2.01-.02-.37-.02-.74-.01-1.11-.2-.05-.38-.11-.57-.18-.44,1.92-.7,3.93-.75,5.99l-.38,15.63,3.44.1c.26-2.06.51-4.11.64-6.17Z"/>
    <path class="cls-4" d="m265.64,354.11c-.5-.35-1-.72-1.46-1.16-5.32-5.11-4.96-12.54,1.12-16.66.24-.16.49-.32.74-.47-2.05-11.67-11.39-20.64-22.83-20.96l-12.25-.35-.32,13.25c-.34,14.25,10.06,26.11,23.25,26.48l11.6.33c.05-.15.1-.3.15-.45Z"/>
    <path class="cls-1" d="m265.63,354.12c-.5-.35-.99-.73-1.45-1.18-.28-.27-.54-.55-.78-.83l-9.45-.27c-11.93-.34-21.41-11.11-21.1-24.04l.26-10.87,10.05.28c10.68.3,19.39,8.96,20.88,20.05.39-.35.81-.68,1.27-.99.89-.6,1.83-1.13,2.8-1.6-2.48-12.41-12.55-21.87-24.8-22.22l-14.45-.41-.38,15.63c-.38,15.55,11.01,28.51,25.39,28.92l10.89.31c.28-.94.57-1.87.89-2.79Z"/>
    <path class="cls-4" d="m250.45,341.54l4.35.12.11-4.71c.12-5.08-3.57-9.28-8.26-9.41l-4.35-.12-.11,4.71c-.12,5.05,3.59,9.28,8.26,9.41Z"/>
    <path class="cls-1" d="m256.94,344.1l-6.55-.18c-5.89-.17-10.56-5.48-10.41-11.85l.17-7.09,6.55.18c5.89.17,10.56,5.48,10.41,11.85l-.17,7.09Zm-12.5-14.24l-.06,2.33c-.09,3.75,2.65,6.87,6.12,6.97l2.15.06.06-2.33c.09-3.75-2.65-6.87-6.12-6.97l-2.15-.06Z"/>
    <path class="cls-4" d="m268.82,330.87c-.59,1.34-1.09,2.74-1.47,4.19.5-.26,1.01-.51,1.53-.74-.03-1.15-.06-2.31-.06-3.46Z"/>
    <path class="cls-1" d="m265.63,354.13c-.5-.35-.99-.74-1.45-1.18-.06-.06-.11-.12-.18-.19l-.1,4.13.83.02c.28-.94.57-1.87.89-2.79Z"/>
    <path class="cls-1" d="m268.81,329.89c-.55-.53-.94-1.17-1.08-1.88-1.41,2.66-2.45,5.58-2.99,8.69.19-.14.36-.29.56-.42,1.13-.76,2.33-1.41,3.58-1.96-.04-1.48-.07-2.95-.07-4.43Z"/>
    <path class="cls-4" d="m261.9,371.3c-4.08-7.21-11.35-12.11-19.75-12.35l-12.25-.35-.32,13.25c-.34,14.25,10.06,26.11,23.25,26.48l7.5.21c.37-8.76.47-18.13,1.57-27.24Z"/>
    <path class="cls-1" d="m260.25,400.15c.06-1.32.12-2.66.17-4.01l-7.54-.21c-11.93-.34-21.41-11.11-21.1-24.04l.26-10.87,10.05.28c8.72.25,16.13,6.07,19.36,14.23.23-2.59.53-5.18.91-7.73-4.62-6.62-11.88-11-20.14-11.23l-14.45-.41-.38,15.63c-.38,15.55,11.01,28.51,25.39,28.92l7.49.21c-.02-.25-.04-.5-.02-.77Z"/>
    <path class="cls-4" d="m249.38,385.64l4.35.12.11-4.71c.12-5.08-3.57-9.28-8.26-9.41l-4.35-.12-.11,4.71c-.12,5.05,3.59,9.28,8.26,9.41Z"/>
    <path class="cls-1" d="m255.88,388.2l-6.55-.18c-5.89-.17-10.56-5.48-10.41-11.85l.17-7.09,6.55.18c5.89.17,10.56,5.48,10.41,11.85l-.17,7.09Zm-12.5-14.24l-.06,2.33c-.09,3.75,2.65,6.87,6.12,6.97l2.15.06.06-2.33c.09-3.75-2.65-6.87-6.12-6.97l-2.15-.06Z"/>
  </g>
  <g>
    <path class="cls-4" d="m80.2,205.12l12.51-10.02-9.27-13.52c-9.97-14.55-28.96-17.61-42.42-6.83l-12.51,10.02,9.27,13.52c9.97,14.55,28.96,17.61,42.42,6.83Z"/>
    <path class="cls-2" d="m96.62,195.73l-14.76,11.82c-14.68,11.76-35.46,8.41-46.33-7.46l-10.93-15.95,14.76-11.82c14.68-11.76,35.46-8.41,46.33,7.46l10.93,15.95Zm-64.2-10.33l7.6,11.09c9.04,13.2,26.32,15.96,38.51,6.2l10.26-8.22-7.6-11.09c-9.04-13.2-26.32-15.96-38.51-6.2l-10.26,8.22Z"/>
    <path class="cls-5" d="m66.58,156.96c67.3,97.57,132.3,195.95,200.01,292.16"/>
    <path class="cls-2" d="m268.81,454.13c-.89-.85-1.47-2.17-1.42-3.96.04-1.67.1-3.34.16-5.01L68.82,155.16l-4.49,3.6,204.08,297.81c0-.11,0-.22,0-.33,0-.8.16-1.49.4-2.11Z"/>
    <path class="cls-4" d="m41.03,174.75l-12.51,10.02,64.2,10.33-9.27-13.52c-9.97-14.55-28.96-17.61-42.42-6.83Z"/>
    <path class="cls-2" d="m94.38,197.53c-.57.46-1.31.68-2.08.58l-64.19-10.38c-1.13-.18-2.01-1.07-2.31-2.25-.28-1.2.14-2.45,1.04-3.17l12.51-10.02c14.68-11.76,35.46-8.41,46.33,7.46l9.29,13.55c.67.97.73,2.3.14,3.36-.16.33-.42.63-.72.87Zm-58.78-14.67l50.85,8.18-5.25-7.67c-9.04-13.2-26.32-15.96-38.51-6.2l-7.09,5.68Z"/>
    <path class="cls-4" d="m105.25,185.06l-12.53,10.04-9.27-13.52c-9.97-14.55-7.14-35.08,6.32-45.86l12.51-10.02,9.27,13.52c9.99,14.53,7.17,35.06-6.29,45.84Z"/>
    <path class="cls-2" d="m106.91,187.49l-14.78,11.84-10.93-15.95c-10.88-15.87-7.78-38.33,6.9-50.09l14.76-11.82,10.93,15.95c10.9,15.85,7.78,38.33-6.87,50.07Zm-13.62,3.38l10.26-8.22c12.21-9.78,14.76-28.46,5.73-41.63l-7.6-11.09-10.26,8.22c-12.21,9.78-14.76,28.46-5.73,41.63l7.6,11.09Z"/>
    <path class="cls-4" d="m89.79,135.7l12.51-10.02-9.58,69.42-9.27-13.52c-9.97-14.55-7.14-35.08,6.34-45.88Z"/>
    <path class="cls-2" d="m94.38,197.53c-.3.24-.61.41-.98.49-1.11.3-2.27-.15-2.93-1.12l-9.27-13.52c-10.88-15.87-7.78-38.33,6.9-50.09l12.51-10.02c.9-.72,2.13-.79,3.11-.15.98.64,1.48,1.82,1.31,3.05l-9.56,69.4c-.09.78-.49,1.48-1.09,1.96Zm-2.93-59.4c-12.21,9.78-14.76,28.46-5.73,41.63l5.25,7.67,7.57-54.98-7.09,5.68Z"/>
    <path class="cls-4" d="m68.89,140.31l-2.29,16.63-15.39-2.48c-16.56-2.67-27.99-19.35-25.53-37.25l2.29-16.63,15.39,2.48c16.54,2.64,27.97,19.32,25.53,37.25Z"/>
    <path class="cls-2" d="m68.93,160.39l-18.17-2.92c-18.08-2.91-30.58-21.16-27.89-40.7l2.7-19.64,18.17,2.92c18.08,2.91,30.58,21.16,27.89,40.7l-2.7,19.64Zm-38.64-56.39l-1.88,13.67c-2.23,16.21,8.18,31.41,23.18,33.82l12.65,2.04,1.88-13.67c2.23-16.21-8.18-31.41-23.18-33.82l-12.65-2.04Z"/>
    <path class="cls-4" d="m25.65,117.21l2.29-16.63,38.64,56.39-15.39-2.48c-16.58-2.69-28.01-19.37-25.54-37.28Z"/>
    <path class="cls-2" d="m68.24,159.39c-.57.46-1.31.68-2.08.58l-15.39-2.48c-8.74-1.41-16.46-6.42-21.74-14.11s-7.44-17.12-6.16-26.59h0l2.29-16.63c.17-1.22.99-2.17,2.08-2.5,1.11-.3,2.27.15,2.93,1.12l38.64,56.39c.67.97.73,2.3.14,3.36-.16.33-.42.63-.72.87Zm-39.81-41.73c-1.08,7.85.72,15.73,5.11,22.12,4.38,6.4,10.79,10.55,18.09,11.72l8.69,1.4-30.61-44.67-1.28,9.42Z"/>
    <path class="cls-4" d="m111.06,250.14l12.51-10.02-9.27-13.52c-9.97-14.55-28.96-17.61-42.42-6.83l-12.51,10.02,9.27,13.52c9.97,14.55,28.96,17.61,42.42,6.83Z"/>
    <path class="cls-2" d="m127.48,240.75l-14.76,11.82c-14.68,11.76-35.46,8.41-46.33-7.46l-10.93-15.95,14.76-11.82c14.68-11.76,35.46-8.41,46.33,7.46l10.93,15.95Zm-64.2-10.33l7.6,11.09c9.04,13.2,26.32,15.96,38.51,6.2l10.26-8.22-7.6-11.09c-9.04-13.2-26.32-15.96-38.51-6.2l-10.26,8.22Z"/>
    <path class="cls-4" d="m71.88,219.77l-12.51,10.02,64.2,10.33-9.27-13.52c-9.97-14.55-28.96-17.61-42.42-6.83Z"/>
    <path class="cls-2" d="m125.23,242.55c-.57.46-1.31.68-2.08.58l-64.19-10.38c-1.13-.18-2.01-1.07-2.31-2.25-.28-1.2.14-2.45,1.04-3.17l12.51-10.02c14.68-11.76,35.46-8.41,46.33,7.46l9.27,13.52c.67.97.73,2.3.14,3.36-.14.36-.4.66-.7.9Zm-58.78-14.67l50.85,8.18-5.25-7.67c-9.04-13.2-26.32-15.96-38.51-6.2l-7.09,5.68Z"/>
    <path class="cls-4" d="m136.1,230.08l-12.53,10.04-9.27-13.52c-9.97-14.55-7.14-35.08,6.32-45.86l12.51-10.02,9.27,13.52c9.99,14.53,7.17,35.06-6.29,45.84Z"/>
    <path class="cls-2" d="m137.76,232.51l-14.78,11.84-10.93-15.95c-10.88-15.87-7.78-38.33,6.9-50.09l14.76-11.82,10.93,15.95c10.9,15.85,7.78,38.33-6.87,50.07Zm-13.62,3.38l10.26-8.22c12.21-9.78,14.76-28.46,5.73-41.63l-7.6-11.09-10.26,8.22c-12.21,9.78-14.76,28.46-5.73,41.63l7.6,11.09Z"/>
    <path class="cls-4" d="m120.64,180.72l12.51-10.02-9.58,69.42-9.27-13.52c-9.97-14.55-7.14-35.08,6.34-45.88Z"/>
    <path class="cls-2" d="m125.23,242.55c-.3.24-.61.41-.98.49-1.11.3-2.27-.15-2.93-1.12l-9.27-13.52c-10.88-15.87-7.78-38.33,6.9-50.09l12.51-10.02c.9-.72,2.13-.79,3.11-.15.98.64,1.48,1.82,1.31,3.05l-9.56,69.4c-.09.78-.49,1.48-1.09,1.96Zm-2.93-59.4c-12.21,9.78-14.76,28.46-5.73,41.63l5.25,7.67,7.57-54.98-7.09,5.68Z"/>
    <path class="cls-4" d="m141.91,295.16l12.51-10.02-9.27-13.52c-9.97-14.55-28.96-17.61-42.42-6.83l-12.51,10.02,9.27,13.52c9.97,14.55,28.96,17.61,42.42,6.83Z"/>
    <path class="cls-2" d="m158.33,285.77l-14.76,11.82c-14.68,11.76-35.46,8.41-46.33-7.46l-10.93-15.95,14.76-11.82c14.68-11.76,35.46-8.41,46.33,7.46l10.93,15.95Zm-64.2-10.33l7.6,11.09c9.04,13.2,26.32,15.96,38.51,6.2l10.26-8.22-7.6-11.09c-9.04-13.2-26.32-15.96-38.51-6.2l-10.26,8.22Z"/>
    <path class="cls-4" d="m102.73,264.79l-12.51,10.02,64.2,10.33-9.27-13.52c-9.97-14.55-28.96-17.61-42.42-6.83Z"/>
    <path class="cls-2" d="m156.08,287.57c-.57.46-1.31.68-2.08.58l-64.19-10.38c-1.13-.18-2.01-1.07-2.31-2.25-.28-1.2.14-2.45,1.04-3.17l12.51-10.02c14.68-11.76,35.46-8.41,46.33,7.46l9.27,13.52c.67.97.73,2.3.14,3.36-.14.36-.4.66-.7.9Zm-58.78-14.67l50.85,8.18-5.25-7.67c-9.04-13.2-26.32-15.96-38.51-6.2l-7.09,5.68Z"/>
    <path class="cls-4" d="m166.95,275.11l-12.53,10.04-9.27-13.52c-9.97-14.55-7.14-35.08,6.32-45.86l12.51-10.02,9.27,13.52c9.99,14.53,7.17,35.06-6.29,45.84Z"/>
    <path class="cls-2" d="m168.61,277.54l-14.78,11.84-10.93-15.95c-10.88-15.87-7.78-38.33,6.9-50.09l14.76-11.82,10.93,15.95c10.9,15.85,7.78,38.33-6.87,50.07Zm-13.62,3.38l10.26-8.22c12.21-9.78,14.76-28.46,5.73-41.63l-7.6-11.09-10.26,8.22c-12.21,9.78-14.76,28.46-5.73,41.63l7.6,11.09Z"/>
    <path class="cls-4" d="m151.49,225.74l12.51-10.02-9.58,69.42-9.27-13.52c-9.97-14.55-7.14-35.08,6.34-45.88Z"/>
    <path class="cls-2" d="m156.08,287.57c-.3.24-.61.41-.98.49-1.11.3-2.27-.15-2.93-1.12l-9.27-13.52c-10.88-15.87-7.78-38.33,6.9-50.09l12.51-10.02c.9-.72,2.13-.79,3.11-.15.98.64,1.48,1.82,1.31,3.05l-9.53,69.38c-.11.8-.52,1.5-1.12,1.98Zm-2.93-59.4c-12.21,9.78-14.76,28.46-5.73,41.63l5.25,7.67,7.57-54.98-7.09,5.68Z"/>
    <path class="cls-4" d="m172.76,340.18l12.51-10.02-9.27-13.52c-9.97-14.55-28.96-17.61-42.42-6.83l-12.51,10.02,9.27,13.52c9.97,14.55,28.96,17.61,42.42,6.83Z"/>
    <path class="cls-2" d="m189.18,330.8l-14.76,11.82c-14.68,11.76-35.46,8.41-46.33-7.46l-10.93-15.95,14.76-11.82c14.68-11.76,35.46-8.41,46.33,7.46l10.93,15.95Zm-64.2-10.33l7.6,11.09c9.04,13.2,26.32,15.96,38.51,6.2l10.26-8.22-7.6-11.09c-9.04-13.2-26.32-15.96-38.51-6.2l-10.26,8.22Z"/>
    <path class="cls-4" d="m133.58,309.82l-12.51,10.02,64.2,10.33-9.27-13.52c-9.97-14.55-28.96-17.61-42.42-6.83Z"/>
    <path class="cls-2" d="m186.93,332.59c-.57.46-1.31.68-2.08.58l-64.19-10.38c-1.13-.18-2.01-1.07-2.31-2.25-.28-1.2.14-2.45,1.04-3.17l12.51-10.02c14.68-11.76,35.46-8.41,46.33,7.46l9.27,13.52c.67.97.73,2.3.14,3.36-.14.36-.4.66-.7.9Zm-58.78-14.67l50.85,8.18-5.25-7.67c-9.04-13.2-26.32-15.96-38.51-6.2l-7.09,5.68Z"/>
    <path class="cls-4" d="m197.8,320.13l-12.53,10.04-9.27-13.52c-9.97-14.55-7.14-35.08,6.32-45.86l12.51-10.02,9.27,13.52c9.99,14.53,7.17,35.06-6.29,45.84Z"/>
    <path class="cls-2" d="m199.47,322.56l-14.78,11.84-10.93-15.95c-10.88-15.87-7.78-38.33,6.9-50.09l14.76-11.82,10.93,15.95c10.9,15.85,7.78,38.33-6.87,50.07Zm-13.62,3.38l10.26-8.22c12.21-9.78,14.76-28.46,5.73-41.63l-7.6-11.09-10.26,8.22c-12.21,9.78-14.76,28.46-5.73,41.63l7.6,11.09Z"/>
    <path class="cls-4" d="m182.34,270.76l12.51-10.02-9.58,69.42-9.27-13.52c-9.97-14.55-7.14-35.08,6.34-45.88Z"/>
    <path class="cls-2" d="m186.93,332.59c-.3.24-.61.41-.98.49-1.11.3-2.27-.15-2.93-1.12l-9.27-13.52c-10.88-15.87-7.78-38.33,6.9-50.09l12.51-10.02c.9-.72,2.13-.79,3.11-.15s1.48,1.82,1.31,3.05l-9.56,69.4c-.09.78-.49,1.48-1.09,1.96Zm-2.93-59.4c-12.21,9.78-14.76,28.46-5.73,41.63l5.25,7.67,7.57-54.98-7.09,5.68Z"/>
    <path class="cls-4" d="m203.61,385.21l12.51-10.02-9.27-13.52c-9.97-14.55-28.96-17.61-42.42-6.83l-12.51,10.02,9.27,13.52c9.97,14.55,28.96,17.61,42.42,6.83Z"/>
    <path class="cls-2" d="m220.03,375.82l-14.76,11.82c-14.68,11.76-35.46,8.41-46.33-7.46l-10.93-15.95,14.76-11.82c14.68-11.76,35.46-8.41,46.33,7.46l10.93,15.95Zm-64.2-10.33l7.6,11.09c9.04,13.2,26.32,15.96,38.51,6.2l10.26-8.22-7.6-11.09c-9.04-13.2-26.32-15.96-38.51-6.2l-10.26,8.22Z"/>
    <path class="cls-4" d="m164.43,354.84l-12.51,10.02,64.2,10.33-9.27-13.52c-9.97-14.55-28.96-17.61-42.42-6.83Z"/>
    <path class="cls-2" d="m217.78,377.62c-.57.46-1.31.68-2.08.58l-64.19-10.38c-1.13-.18-2.01-1.07-2.31-2.25-.28-1.2.14-2.45,1.04-3.17l12.51-10.02c14.68-11.76,35.46-8.41,46.33,7.46l9.27,13.52c.67.97.73,2.3.14,3.36-.14.36-.4.66-.7.9Zm-58.78-14.67l50.85,8.18-5.25-7.67c-9.04-13.2-26.32-15.96-38.51-6.2l-7.09,5.68Z"/>
    <path class="cls-4" d="m228.65,365.15l-12.53,10.04-9.27-13.52c-9.97-14.55-7.14-35.08,6.32-45.86l12.51-10.02,9.27,13.52c9.99,14.53,7.17,35.06-6.29,45.84Z"/>
    <path class="cls-2" d="m230.32,367.58l-14.78,11.84-10.93-15.95c-10.88-15.87-7.78-38.33,6.9-50.09l14.76-11.82,10.93,15.95c10.9,15.85,7.78,38.33-6.87,50.07Zm-13.62,3.38l10.26-8.22c12.21-9.78,14.76-28.46,5.73-41.63l-7.6-11.09-10.26,8.22c-12.21,9.78-14.76,28.46-5.73,41.63l7.6,11.09Z"/>
    <path class="cls-4" d="m213.19,315.78l12.51-10.02-9.58,69.42-9.27-13.52c-9.97-14.55-7.14-35.08,6.34-45.88Z"/>
    <path class="cls-2" d="m217.78,377.62c-.3.24-.61.41-.98.49-1.11.3-2.27-.15-2.93-1.12l-9.27-13.52c-10.88-15.87-7.78-38.33,6.9-50.09l12.51-10.02c.9-.72,2.13-.79,3.11-.15s1.48,1.82,1.31,3.05l-9.56,69.4c-.09.78-.49,1.48-1.09,1.96Zm-2.93-59.4c-12.21,9.78-14.76,28.46-5.73,41.63l5.25,7.67,7.57-54.98-7.09,5.68Z"/>
    <path class="cls-4" d="m234.46,430.23l12.51-10.02-9.27-13.52c-9.97-14.55-28.96-17.61-42.42-6.83l-12.51,10.02,9.27,13.52c9.97,14.55,28.96,17.61,42.42,6.83Z"/>
    <path class="cls-2" d="m250.88,420.84l-14.76,11.82c-14.68,11.76-35.46,8.41-46.33-7.46l-10.93-15.95,14.76-11.82c14.68-11.76,35.46-8.41,46.33,7.46l10.93,15.95Zm-64.21-10.36l7.6,11.09c9.04,13.2,26.32,15.96,38.51,6.2l10.26-8.22-7.6-11.09c-9.04-13.2-26.32-15.96-38.51-6.2l-10.26,8.22Z"/>
    <path class="cls-4" d="m195.27,399.83l-12.51,10.02,64.21,10.36-9.27-13.52c-9.97-14.55-28.98-17.63-42.44-6.85Z"/>
    <path class="cls-2" d="m248.64,422.64c-.57.46-1.31.68-2.08.58l-64.19-10.38c-1.13-.18-2.01-1.07-2.31-2.25-.3-1.18.14-2.45,1.04-3.17l12.51-10.02c14.68-11.76,35.46-8.41,46.33,7.46l9.27,13.52c.67.97.73,2.3.14,3.36-.14.36-.4.66-.7.9Zm-58.8-14.7l50.85,8.18-5.25-7.67c-9.04-13.2-26.32-15.96-38.51-6.2l-7.09,5.68Z"/>
    <path class="cls-4" d="m263.32,404.98c-1.78-.75-3.18-2.42-3.06-4.83.58-12.48.47-26.35,3.37-38.98l-7.1-10.36-12.51,10.02c-13.46,10.78-16.28,31.31-6.32,45.86l9.27,13.52,12.53-10.04c1.39-1.11,2.65-2.34,3.81-3.65v-1.55Z"/>
    <path class="cls-2" d="m263.32,404.98c-.58-.25-1.12-.6-1.58-1.04-1.17,1.38-2.48,2.67-3.92,3.82l-10.26,8.22-7.6-11.09c-9.03-13.17-6.48-31.85,5.73-41.63l10.26-8.22,6.88,10.04c.47-2.58,1.04-5.12,1.75-7.61l-7.46-10.89-14.76,11.82c-14.68,11.76-17.77,34.22-6.9,50.09l10.93,15.95,14.78-11.84c.75-.6,1.46-1.24,2.15-1.89v-5.73Z"/>
    <path class="cls-4" d="m244.03,360.78l12.51-10.02-9.56,69.45-9.27-13.52c-9.97-14.55-7.16-35.11,6.32-45.91Z"/>
    <path class="cls-2" d="m248.64,422.64c-.3.24-.61.41-.98.49-1.11.3-2.27-.15-2.93-1.12l-9.27-13.52c-10.88-15.87-7.78-38.33,6.9-50.09l12.51-10.02c.9-.72,2.13-.79,3.11-.15s1.48,1.82,1.31,3.05l-9.56,69.4c-.09.78-.49,1.48-1.09,1.96Zm-2.95-59.43c-12.21,9.78-14.76,28.46-5.73,41.63l5.25,7.67,7.57-54.98-7.09,5.68Z"/>
  </g>
  <g>
    <path class="cls-4" d="m163.02,208.84l11.08-5.66-5.24-11.98c-5.64-12.89-19.87-18.4-31.79-12.3l-11.08,5.66,5.24,11.98c5.64,12.89,19.87,18.4,31.79,12.3Z"/>
    <path class="cls-1" d="m177.05,204.3l-13.07,6.68c-13,6.65-28.57.62-34.72-13.44l-6.18-14.13,13.07-6.68c13-6.65,28.57-.62,34.72,13.44l6.18,14.13Zm-48.13-18.61l4.3,9.83c5.11,11.69,18.07,16.68,28.86,11.17l9.09-4.65-4.3-9.83c-5.11-11.69-18.07-16.68-28.86-11.17l-9.09,4.65Z"/>
    <path class="cls-4" d="m154.66,199.19l3.94-2.01-1.86-4.26c-2.01-4.59-7.06-6.54-11.3-4.37l-3.94,2.01,1.86,4.26c2,4.57,7.08,6.53,11.3,4.37Z"/>
    <path class="cls-1" d="m161.52,198.31l-5.93,3.03c-5.33,2.72-11.71.25-14.23-5.51l-2.8-6.41,5.93-3.03c5.33-2.72,11.71-.25,14.23,5.51l2.8,6.41Zm-17.1-6.62l.92,2.1c1.48,3.4,5.23,4.84,8.37,3.24l1.95-.99-.92-2.1c-1.48-3.4-5.23-4.84-8.37-3.24l-1.95.99Z"/>
    <path class="cls-5" d="m159.34,169.38c13.12,29.41,26.06,58.91,38.94,88.44,12.83,29.42,25.59,58.88,38.38,88.32,7.25,16.69,14.52,33.37,21.81,50.04"/>
    <path class="cls-1" d="m263.32,412.57v-7.59c-1.78-.75-3.18-2.42-3.06-4.83.08-1.68.14-3.39.21-5.12l-99.13-226.66-3.98,2.03,105.98,242.33c0-.06-.01-.1-.01-.16Z"/>
    <path class="cls-1" d="m265.01,416.57l1.77,4.04c.23-.98.5-1.94.79-2.9-.94-.13-1.83-.51-2.56-1.14Z"/>
    <path class="cls-4" d="m185.2,197.5l-11.08,5.66-5.24-11.98c-5.64-12.89-.54-28.28,11.38-34.37l11.08-5.66,5.24,11.98c5.64,12.89.54,28.28-11.38,34.37Z"/>
    <path class="cls-1" d="m186.14,199.65l-13.07,6.68-6.18-14.13c-6.15-14.06-.57-30.89,12.43-37.54l13.07-6.68,6.18,14.13c6.15,14.06.57,30.89-12.43,37.54Zm-10.97.34l9.09-4.65c10.81-5.53,15.43-19.53,10.33-31.2l-4.3-9.83-9.09,4.65c-10.81,5.53-15.43,19.53-10.33,31.2l4.3,9.83Z"/>
    <path class="cls-4" d="m183.61,184.39l-3.94,2.01-1.86-4.26c-2.01-4.59-.2-10.05,4.05-12.22l3.94-2.01,1.86,4.26c2,4.57.18,10.06-4.05,12.22Z"/>
    <path class="cls-1" d="m184.55,186.54l-5.93,3.03-2.8-6.41c-2.52-5.76-.23-12.66,5.1-15.39l5.93-3.03,2.8,6.41c2.52,5.76.23,12.66-5.1,15.39Zm-3.83-3.31l1.95-.99c3.14-1.61,4.48-5.65,3-9.05l-.92-2.1-1.95.99c-3.14,1.61-4.48,5.65-3,9.05l.92,2.1Z"/>
    <path class="cls-4" d="m163.47,156.91l-4.13,12.47-11.53-4.46c-12.41-4.8-18.87-19.58-14.43-33l4.13-12.47,11.53,4.46c12.4,4.78,18.86,19.55,14.43,33Z"/>
    <path class="cls-1" d="m160.67,172.42l-13.62-5.27c-13.55-5.24-20.62-21.41-15.77-36.06l4.87-14.72,13.62,5.27c13.55,5.24,20.62,21.41,15.77,36.06l-4.87,14.72Zm-21.84-49.95l-3.39,10.25c-4.02,12.15,1.86,25.61,13.1,29.96l9.48,3.67,3.39-10.25c4.02-12.15-1.86-25.61-13.1-29.96l-9.48-3.67Z"/>
    <path class="cls-4" d="m153.75,148.86l-1.47,4.44-4.1-1.59c-4.4-1.7-6.7-6.96-5.12-11.72l1.47-4.44,4.1,1.59c4.42,1.69,6.71,6.93,5.12,11.72Z"/>
    <path class="cls-1" d="m153.63,156.33l-6.19-2.4c-5.54-2.14-8.43-8.77-6.46-14.78l2.22-6.69,6.19,2.4c5.54,2.14,8.43,8.77,6.46,14.78l-2.22,6.69Zm-7.76-17.74l-.72,2.18c-.57,1.73-.48,3.55.24,5.2s1.99,2.87,3.56,3.5l2.02.78.72-2.18c.57-1.73.48-3.55-.24-5.2s-1.99-2.87-3.56-3.5l-2.02-.78Z"/>
    <path class="cls-4" d="m180.46,248.72l11.08-5.66-5.24-11.98c-5.64-12.89-19.87-18.4-31.79-12.3l-11.08,5.66,5.24,11.98c5.64,12.89,19.87,18.4,31.79,12.3Z"/>
    <path class="cls-1" d="m194.49,244.18l-13.07,6.68c-13,6.65-28.57.62-34.72-13.44l-6.18-14.13,13.07-6.68c13-6.65,28.57-.62,34.72,13.44l6.18,14.13Zm-48.13-18.61l4.3,9.83c5.11,11.69,18.07,16.68,28.86,11.17l9.09-4.65-4.3-9.83c-5.11-11.69-18.07-16.68-28.86-11.17l-9.09,4.65Z"/>
    <path class="cls-4" d="m172.1,239.07l3.94-2.01-1.86-4.26c-2.01-4.59-7.06-6.54-11.3-4.37l-3.94,2.01,1.86,4.26c2,4.57,7.08,6.53,11.3,4.37Z"/>
    <path class="cls-1" d="m178.97,238.19l-5.93,3.03c-5.33,2.72-11.71.25-14.23-5.51l-2.8-6.41,5.93-3.03c5.33-2.72,11.71-.25,14.23,5.51l2.8,6.41Zm-17.1-6.62l.92,2.1c1.48,3.4,5.23,4.84,8.37,3.24l1.95-.99-.92-2.1c-1.48-3.4-5.23-4.84-8.37-3.24l-1.95.99Z"/>
    <path class="cls-4" d="m202.64,237.38l-11.08,5.66-5.24-11.98c-5.64-12.89-.54-28.28,11.38-34.37l11.08-5.66,5.24,11.98c5.64,12.89.54,28.28-11.38,34.37Z"/>
    <path class="cls-1" d="m203.58,239.53l-13.07,6.68-6.18-14.13c-6.15-14.06-.57-30.89,12.43-37.54l13.07-6.68,6.18,14.13c6.15,14.06.57,30.89-12.43,37.54Zm-10.97.34l9.09-4.65c10.81-5.53,15.43-19.53,10.33-31.2l-4.3-9.83-9.09,4.65c-10.81,5.53-15.43,19.53-10.33,31.2l4.3,9.83Z"/>
    <path class="cls-4" d="m201.05,224.27l-3.94,2.01-1.86-4.26c-2.01-4.59-.2-10.05,4.05-12.22l3.94-2.01,1.86,4.26c2,4.57.18,10.06-4.05,12.22Z"/>
    <path class="cls-1" d="m201.99,226.42l-5.93,3.03-2.8-6.41c-2.52-5.76-.23-12.66,5.1-15.39l5.93-3.03,2.8,6.41c2.52,5.76.23,12.66-5.1,15.39Zm-3.83-3.31l1.95-.99c3.14-1.61,4.48-5.65,3-9.05l-.92-2.1-1.95.99c-3.14,1.61-4.48,5.65-3,9.05l.92,2.1Z"/>
    <path class="cls-4" d="m197.9,288.6l11.08-5.66-5.24-11.98c-5.64-12.89-19.87-18.4-31.79-12.3l-11.08,5.66,5.24,11.98c5.64,12.89,19.87,18.4,31.79,12.3Z"/>
    <path class="cls-1" d="m211.93,284.06l-13.07,6.68c-13,6.65-28.57.62-34.72-13.44l-6.18-14.13,13.07-6.68c13-6.65,28.57-.62,34.72,13.44l6.18,14.13Zm-48.13-18.61l4.3,9.83c5.11,11.69,18.07,16.68,28.86,11.17l9.09-4.65-4.3-9.83c-5.11-11.69-18.07-16.68-28.86-11.17l-9.09,4.65Z"/>
    <path class="cls-4" d="m189.54,278.95l3.94-2.01-1.86-4.26c-2.01-4.59-7.06-6.54-11.3-4.37l-3.94,2.01,1.86,4.26c2,4.57,7.08,6.53,11.3,4.37Z"/>
    <path class="cls-1" d="m196.41,278.07l-5.93,3.03c-5.33,2.72-11.71.25-14.23-5.51l-2.8-6.41,5.93-3.03c5.33-2.72,11.71-.25,14.23,5.51l2.8,6.41Zm-17.1-6.62l.92,2.1c1.48,3.4,5.23,4.84,8.37,3.24l1.95-.99-.92-2.1c-1.48-3.4-5.23-4.84-8.37-3.24l-1.95.99Z"/>
    <path class="cls-4" d="m220.08,277.26l-11.08,5.66-5.24-11.98c-5.64-12.89-.54-28.28,11.38-34.37l11.08-5.66,5.24,11.98c5.64,12.89.54,28.28-11.38,34.37Z"/>
    <path class="cls-1" d="m221.02,279.42l-13.07,6.68-6.18-14.13c-6.15-14.06-.57-30.89,12.43-37.54l13.07-6.68,6.18,14.13c6.15,14.06.57,30.89-12.43,37.54Zm-10.97.34l9.09-4.65c10.81-5.53,15.43-19.53,10.33-31.2l-4.3-9.83-9.09,4.65c-10.81,5.53-15.43,19.53-10.33,31.2l4.3,9.83Z"/>
    <path class="cls-4" d="m218.49,264.15l-3.94,2.01-1.86-4.26c-2.01-4.59-.2-10.05,4.05-12.22l3.94-2.01,1.86,4.26c2,4.57.18,10.06-4.05,12.22Z"/>
    <path class="cls-1" d="m219.43,266.31l-5.93,3.03-2.8-6.41c-2.52-5.76-.23-12.66,5.1-15.39l5.93-3.03,2.8,6.41c2.52,5.76.23,12.66-5.1,15.39Zm-3.83-3.31l1.95-.99c3.14-1.61,4.48-5.65,3-9.05l-.92-2.1-1.95.99c-3.14,1.61-4.48,5.65-3,9.05l.92,2.1Z"/>
    <path class="cls-4" d="m215.34,328.48l11.08-5.66-5.24-11.98c-5.64-12.89-19.87-18.4-31.79-12.3l-11.08,5.66,5.24,11.98c5.64,12.89,19.87,18.4,31.79,12.3Z"/>
    <path class="cls-1" d="m229.37,323.94l-13.07,6.68c-13,6.65-28.57.62-34.72-13.44l-6.18-14.13,13.07-6.68c13-6.65,28.57-.62,34.72,13.44l6.18,14.13Zm-48.13-18.61l4.3,9.83c5.11,11.69,18.07,16.68,28.86,11.17l9.09-4.65-4.3-9.83c-5.11-11.69-18.07-16.68-28.86-11.17l-9.09,4.65Z"/>
    <path class="cls-4" d="m206.98,318.83l3.94-2.01-1.86-4.26c-2.01-4.59-7.06-6.54-11.3-4.37l-3.94,2.01,1.86,4.26c2,4.57,7.08,6.53,11.3,4.37Z"/>
    <path class="cls-1" d="m213.85,317.95l-5.93,3.03c-5.33,2.72-11.71.25-14.23-5.51l-2.8-6.41,5.93-3.03c5.33-2.72,11.71-.25,14.23,5.51l2.8,6.41Zm-17.1-6.62l.92,2.1c1.48,3.4,5.23,4.84,8.37,3.24l1.95-.99-.92-2.1c-1.48-3.4-5.23-4.84-8.37-3.24l-1.95.99Z"/>
    <path class="cls-4" d="m237.52,317.15l-11.08,5.66-5.24-11.98c-5.64-12.89-.54-28.28,11.38-34.37l11.08-5.66,5.24,11.98c5.64,12.89.54,28.28-11.38,34.37Z"/>
    <path class="cls-1" d="m238.46,319.3l-13.07,6.68-6.18-14.13c-6.15-14.06-.57-30.89,12.43-37.54l13.07-6.68,6.18,14.13c6.15,14.06.57,30.89-12.43,37.54Zm-10.97.34l9.09-4.65c10.81-5.53,15.43-19.53,10.33-31.2l-4.3-9.83-9.09,4.65c-10.81,5.53-15.43,19.53-10.33,31.2l4.3,9.83Z"/>
    <path class="cls-4" d="m235.93,304.03l-3.94,2.01-1.86-4.26c-2.01-4.59-.2-10.05,4.05-12.22l3.94-2.01,1.86,4.26c2,4.57.18,10.06-4.05,12.22Z"/>
    <path class="cls-1" d="m236.87,306.19l-5.93,3.03-2.8-6.41c-2.52-5.76-.23-12.66,5.1-15.39l5.93-3.03,2.8,6.41c2.52,5.76.23,12.66-5.1,15.39Zm-3.83-3.31l1.95-.99c3.14-1.61,4.48-5.65,3-9.05l-.92-2.1-1.95.99c-3.14,1.61-4.48,5.65-3,9.05l.92,2.1Z"/>
    <path class="cls-4" d="m232.78,368.36l11.08-5.66-5.24-11.98c-5.64-12.89-19.87-18.4-31.79-12.3l-11.08,5.66,5.24,11.98c5.64,12.89,19.87,18.4,31.79,12.3Z"/>
    <path class="cls-1" d="m246.82,363.82l-13.07,6.68c-13,6.65-28.57.62-34.72-13.44l-6.18-14.13,13.07-6.68c13-6.65,28.57-.62,34.72,13.44l6.18,14.13Zm-48.13-18.61l4.3,9.83c5.11,11.69,18.07,16.68,28.86,11.17l9.09-4.65-4.3-9.83c-5.11-11.69-18.07-16.68-28.86-11.17l-9.09,4.65Z"/>
    <path class="cls-4" d="m224.42,358.71l3.94-2.01-1.86-4.26c-2.01-4.59-7.06-6.54-11.3-4.37l-3.94,2.01,1.86,4.26c2,4.57,7.08,6.53,11.3,4.37Z"/>
    <path class="cls-1" d="m231.29,357.84l-5.93,3.03c-5.33,2.72-11.71.25-14.23-5.51l-2.8-6.41,5.93-3.03c5.33-2.72,11.71-.25,14.23,5.51l2.8,6.41Zm-17.1-6.62l.92,2.1c1.48,3.4,5.23,4.84,8.37,3.24l1.95-.99-.92-2.1c-1.48-3.4-5.23-4.84-8.37-3.24l-1.95.99Z"/>
    <path class="cls-4" d="m267.69,327.83c-.08-.64-.13-1.28-.17-1.92-.32-1.1-.71-2.18-1.17-3.25l-5.24-11.98-11.08,5.66c-11.92,6.09-17.02,21.48-11.38,34.37l5.24,11.98,11.08-5.66c2.95-1.51,5.47-3.58,7.53-6.04-3.46-4.91-2.53-11.08,2.81-14.7,1.05-.71,2.16-1.32,3.32-1.85.05-1.72-.07-3.45-.35-5.18-.3-.43-.52-.91-.58-1.43Z"/>
    <path class="cls-1" d="m268.88,334.32c-.04-1.48-.07-2.95-.07-4.43-.6-.58-1.02-1.27-1.12-2.06-.33-2.62-.29-5.24-.08-7.85l-5.45-12.47-13.07,6.68c-13,6.65-18.58,23.48-12.43,37.54l6.18,14.13,13.07-6.68c3.15-1.61,5.86-3.82,8.08-6.44-1.2-1.2-2.11-2.52-2.69-3.9-1.94,2.48-4.38,4.56-7.26,6.04l-9.09,4.65-4.3-9.83c-5.1-11.67-.48-25.67,10.33-31.2l9.09-4.65,4.3,9.83c1.69,3.86,2.31,7.97,1.99,11.95.81-.48,1.66-.91,2.53-1.3Z"/>
    <path class="cls-4" d="m253.37,343.92l-3.94,2.01-1.86-4.26c-2.01-4.59-.2-10.05,4.05-12.22l3.94-2.01,1.86,4.26c2,4.57.18,10.06-4.05,12.22Z"/>
    <path class="cls-1" d="m254.31,346.07l-5.93,3.03-2.8-6.41c-2.52-5.76-.23-12.66,5.1-15.39l5.93-3.03,2.8,6.41c2.52,5.76.23,12.66-5.1,15.39Zm-3.83-3.31l1.95-.99c3.14-1.61,4.48-5.65,3-9.05l-.92-2.1-1.95.99c-3.14,1.61-4.48,5.65-3,9.05l.92,2.1Z"/>
    <path class="cls-4" d="m260.25,400.19l-4.19-9.58c-5.64-12.89-19.87-18.4-31.79-12.3l-11.08,5.66,5.24,11.98c5.64,12.89,19.87,18.4,31.79,12.3l10.64-5.44c-.41-.74-.65-1.61-.61-2.62Z"/>
    <path class="cls-1" d="m260.25,400.15c.08-1.68.14-3.39.21-5.12l-2.38-5.45c-6.15-14.06-21.72-20.08-34.72-13.44l-13.07,6.68,6.18,14.13c6.15,14.06,21.72,20.08,34.72,13.44l11.37-5.81c-1.39-.87-2.4-2.37-2.3-4.43Zm-10.98,5.92c-10.79,5.52-23.75.52-28.86-11.17l-4.3-9.83,9.09-4.65c10.79-5.52,23.75-.52,28.86,11.17l4.3,9.83-9.09,4.65Z"/>
    <path class="cls-4" d="m241.86,398.59l3.94-2.01-1.86-4.26c-2.01-4.59-7.06-6.54-11.3-4.37l-3.94,2.01,1.86,4.26c2,4.57,7.08,6.53,11.3,4.37Z"/>
    <path class="cls-1" d="m248.73,397.72l-5.93,3.03c-5.33,2.72-11.71.25-14.23-5.51l-2.8-6.41,5.93-3.03c5.33-2.72,11.71-.25,14.23,5.51l2.8,6.41Zm-17.1-6.62l.92,2.1c1.48,3.4,5.23,4.84,8.37,3.24l1.95-.99-.92-2.1c-1.48-3.4-5.23-4.84-8.37-3.24l-1.95.99Z"/>
    <path class="cls-4" d="m264.4,358.1c-9.69,6.98-13.44,20.77-8.31,32.49l4.17,9.53c.63-13.49.44-28.61,4.15-42.02Z"/>
    <path class="cls-1" d="m260.25,400.15c.08-1.68.14-3.39.21-5.12l-2.38-5.45c-4.24-9.69-1.76-20.99,5.39-27.71.54-2.45,1.19-4.85,1.98-7.19-12.22,7.01-17.32,23.27-11.35,36.93l6.18,14.13,2.28-1.17c-1.39-.87-2.4-2.37-2.3-4.43Z"/>
  </g>
  <g>
    <path class="cls-4" d="m297.12,165.9l15.17,3.79,3.51-16.4c3.77-17.64-6.4-35.25-22.72-39.33l-15.17-3.79-3.51,16.4c-3.77,17.64,6.4,35.25,22.72,39.33Z"/>
    <path class="cls-2" d="m314.38,173.32l-17.89-4.47c-17.8-4.45-28.93-23.71-24.81-42.95l4.14-19.34,17.89,4.47c17.8,4.45,28.93,23.71,24.81,42.95l-4.14,19.34Zm-34.38-59.51l-2.88,13.45c-3.42,16,5.85,32.01,20.62,35.7l12.44,3.11,2.88-13.45c3.42-16-5.85-32.01-20.62-35.7l-12.44-3.11Z"/>
    <path class="cls-5" d="m261.4,407.65c-6.33,34.17-15.33,68.77-21.99,102.87"/>
    <path class="cls-5" d="m322.18,123.45c-7.08,41.3-19.08,82.39-26.48,123.56"/>
    <path class="cls-2" d="m297.52,247.94c.31-.13.63-.24.98-.33l26.4-123.48-5.45-1.36-26.97,126.15c1.77-.5,3.48-.84,5.04-.98Z"/>
    <path class="cls-2" d="m263.32,404.98c-1.78-.75-3.18-2.42-3.06-4.83.01-.22.02-.44.03-.66l-23.6,110.36,5.45,1.36,21.18-99.06v-7.16Z"/>
    <path class="cls-4" d="m293.08,113.97l-15.17-3.79,34.38,59.51,3.51-16.4c3.77-17.64-6.4-35.25-22.72-39.33Z"/>
    <path class="cls-2" d="m311.66,172.64c-.7-.17-1.33-.64-1.76-1.34l-34.34-59.54c-.61-1.05-.55-2.34.08-3.36.66-1.01,1.81-1.48,2.9-1.2l15.17,3.79c17.8,4.45,28.93,23.71,24.81,42.95l-3.51,16.43c-.25,1.18-1.15,2.09-2.28,2.29-.34.09-.72.06-1.08-.03Zm-27.81-57.87l27.23,47.14,1.99-9.29c3.42-16-5.85-32.01-20.62-35.7l-8.6-2.15Z"/>
    <path class="cls-4" d="m327.49,173.49l-15.2-3.8,3.51-16.4c3.77-17.64,20.06-28.64,36.38-24.56l15.17,3.79-3.51,16.4c-3.74,17.65-20.03,28.64-36.35,24.57Z"/>
    <path class="cls-2" d="m326.86,176.44l-17.92-4.48,4.14-19.34c4.11-19.24,21.93-31.27,39.73-26.82l17.89,4.47-4.14,19.34c-4.08,19.25-21.93,31.27-39.7,26.83Zm-11.21-9.01l12.44,3.11c14.8,3.7,29.61-6.32,33.02-22.29l2.88-13.45-12.44-3.11c-14.8-3.7-29.61,6.32-33.02,22.29l-2.88,13.45Z"/>
    <path class="cls-4" d="m352.2,128.75l15.17,3.79-55.08,37.16,3.51-16.4c3.77-17.64,20.06-28.64,36.41-24.55Z"/>
    <path class="cls-2" d="m311.66,172.64c-.36-.09-.68-.24-.98-.49-.93-.72-1.37-1.96-1.11-3.14l3.51-16.4c4.11-19.24,21.93-31.27,39.73-26.82l15.17,3.79c1.09.27,1.93,1.24,2.12,2.46.19,1.22-.32,2.4-1.29,3.06l-55.05,37.17c-.6.44-1.36.56-2.09.37Zm39.91-40.95c-14.8-3.7-29.61,6.32-33.02,22.29l-1.99,9.29,43.61-29.44-8.6-2.15Z"/>
    <path class="cls-4" d="m335.4,114.55l-13.19,8.91-8.24-14.26c-8.87-15.35-4.54-35.58,9.66-45.17l13.19-8.91,8.24,14.26c8.87,15.32,4.55,35.55-9.66,45.17Z"/>
    <path class="cls-2" d="m321.29,127.61l-9.73-16.84c-9.68-16.76-4.95-38.89,10.55-49.35l15.58-10.52,9.73,16.84c9.68,16.76,4.95,38.89-10.55,49.35l-15.58,10.52Zm14.62-68.37l-10.85,7.32c-12.86,8.68-16.8,27.11-8.77,41.01l6.77,11.73,10.85-7.32c12.86-8.68,16.8-27.11,8.77-41.01l-6.77-11.73Z"/>
    <path class="cls-4" d="m323.6,63.99l13.19-8.91-14.62,68.37-8.24-14.26c-8.86-15.38-4.54-35.61,9.66-45.2Z"/>
    <path class="cls-2" d="m321.55,126.4c-.7-.17-1.33-.64-1.76-1.34l-8.24-14.26c-4.68-8.1-6.16-17.71-4.17-27.04,1.99-9.33,7.22-17.23,14.72-22.32h0l13.19-8.91c.97-.65,2.17-.6,3.11.09.93.72,1.37,1.96,1.11,3.14l-14.62,68.37c-.25,1.18-1.15,2.09-2.28,2.29-.34.09-.72.06-1.08-.03Zm3.54-59.83c-6.22,4.2-10.6,10.8-12.26,18.55s-.43,15.72,3.48,22.49l4.66,8.06,11.58-54.17-7.46,5.07Z"/>
    <path class="cls-4" d="m285.45,220.5l15.17,3.79,3.51-16.4c3.77-17.64-6.4-35.25-22.72-39.33l-15.17-3.79-3.51,16.4c-3.77,17.64,6.4,35.25,22.72,39.33Z"/>
    <path class="cls-2" d="m302.71,227.91l-17.89-4.47c-17.8-4.45-28.93-23.71-24.81-42.95l4.14-19.34,17.89,4.47c17.8,4.45,28.93,23.71,24.81,42.95l-4.14,19.34Zm-34.38-59.51l-2.88,13.45c-3.42,16,5.85,32.01,20.62,35.7l12.44,3.11,2.88-13.45c3.42-16-5.85-32.01-20.62-35.7l-12.44-3.11Z"/>
    <path class="cls-4" d="m281.41,168.56l-15.17-3.79,34.38,59.51,3.51-16.4c3.77-17.64-6.4-35.25-22.72-39.33Z"/>
    <path class="cls-2" d="m299.99,227.23c-.7-.17-1.33-.64-1.76-1.34l-34.34-59.54c-.61-1.05-.55-2.34.08-3.36.66-1.01,1.81-1.48,2.9-1.2l15.17,3.79c17.8,4.45,28.93,23.71,24.81,42.95l-3.51,16.4c-.25,1.18-1.15,2.09-2.28,2.29-.34.12-.72.1-1.09,0Zm-27.81-57.87l27.23,47.14,1.99-9.29c3.42-16-5.85-32.01-20.62-35.7l-8.6-2.15Z"/>
    <path class="cls-4" d="m315.81,228.08l-15.2-3.8,3.51-16.4c3.77-17.64,20.06-28.64,36.38-24.56l15.17,3.79-3.51,16.4c-3.74,17.65-20.03,28.64-36.35,24.57Z"/>
    <path class="cls-2" d="m315.18,231.03l-17.92-4.48,4.14-19.34c4.11-19.24,21.93-31.27,39.73-26.82l17.89,4.47-4.14,19.34c-4.08,19.25-21.93,31.27-39.7,26.83Zm-11.21-9.01l12.44,3.11c14.8,3.7,29.61-6.32,33.02-22.29l2.88-13.45-12.44-3.11c-14.8-3.7-29.61,6.32-33.02,22.29l-2.88,13.45Z"/>
    <path class="cls-4" d="m340.53,183.34l15.17,3.79-55.08,37.16,3.51-16.4c3.77-17.64,20.06-28.64,36.41-24.55Z"/>
    <path class="cls-2" d="m299.99,227.23c-.36-.09-.68-.24-.98-.49-.93-.72-1.37-1.96-1.11-3.14l3.51-16.4c4.11-19.24,21.93-31.27,39.73-26.82l15.17,3.79c1.09.27,1.93,1.24,2.12,2.46.19,1.22-.32,2.4-1.29,3.06l-55.05,37.17c-.6.44-1.36.56-2.09.37Zm39.91-40.95c-14.8-3.7-29.61,6.32-33.02,22.29l-1.99,9.29,43.61-29.44-8.6-2.15Z"/>
    <path class="cls-4" d="m271.75,268.53c.2-.37.41-.74.65-1.09.25-.65.65-1.16,1.15-1.56-.08-.37-.14-.74-.15-1.12-1.9.87-3.67,1.82-5.46,2.86-.47.27-.65.48-.82.74.1,0,.21,0,.35,0,1.39-.07,2.82.08,4.27.17Z"/>
    <path class="cls-4" d="m261.58,261.64c6.31-4.34,14.72-6.66,22.35-9.2.02,0,.03-.01.05-.02,2.79-1.53,5.82-2.77,8.69-3.56-2.22-12.32-10.9-22.7-22.94-25.71l-15.17-3.79-3.51,16.4c-2.33,10.88.66,21.75,7.11,29.44.78-1.31,1.93-2.54,3.41-3.55Z"/>
    <path class="cls-2" d="m260.04,262.9c-5.71-6.97-8.34-16.71-6.26-26.46l2.88-13.45,12.44,3.11c11,2.75,18.94,12.32,20.87,23.63,1.86-.67,3.7-1.18,5.43-1.49-2.44-13.43-11.92-24.75-25.04-28.03l-17.89-4.47-4.14,19.34c-2.66,12.42,1.04,24.84,8.78,33.29.14-1.9,1.2-3.84,2.93-5.47Z"/>
    <path class="cls-4" d="m283.93,252.44s.03-.01.05-.02c2.79-1.53,5.82-2.77,8.69-3.56-2.22-12.32-10.9-22.7-22.94-25.71l-15.17-3.79,20.75,35.92c2.88-.99,5.8-1.9,8.62-2.84Z"/>
    <path class="cls-2" d="m278.07,254.36l-17.56-30.41,8.6,2.15c11,2.75,18.94,12.32,20.87,23.63,1.87-.67,3.71-1.18,5.44-1.49-2.43-13.44-11.92-24.78-25.05-28.06l-15.17-3.79c-1.09-.27-2.24.2-2.9,1.2-.63,1.01-.69,2.31-.08,3.36l20.36,35.31c1.81-.67,3.65-1.29,5.49-1.9Z"/>
    <path class="cls-4" d="m307.05,246.94c4.38-.51,8.82-.67,13.3-.31.79.06,1.48.24,2.09.49,4.94-.68,9.87-.84,14.22-.35,1.99.22,3.22,1.6,3.53,3.1.71-.11,1.42-.21,2.14-.32l1.67-7.83-15.17-3.79c-10.88-2.72-21.75,1.27-28.9,9.46,1.98-.19,4.52-.42,7.13-.44Z"/>
    <path class="cls-2" d="m297.52,247.94c.61-.26,1.29-.45,2.06-.52,1.35-.13,3-.29,4.78-.38,6.39-5.76,15.11-8.35,23.84-6.17l12.44,3.11-.99,4.61c.25.4.44.83.53,1.28,1.7-.27,3.4-.52,5.1-.77l2.06-9.65-17.89-4.47c-13.08-3.27-26.16,2.37-33.82,13.22.65-.11,1.28-.2,1.88-.26Z"/>
    <path class="cls-4" d="m307.05,246.94c4.38-.51,8.82-.67,13.3-.31.79.06,1.48.24,2.09.49,4.9-.67,9.79-.84,14.12-.36l7.47-5.04-15.17-3.79c-10.9-2.73-21.78,1.27-28.93,9.46,1.98-.19,4.52-.42,7.13-.44Z"/>
    <path class="cls-2" d="m297.52,247.94c.61-.26,1.29-.45,2.06-.52,1.36-.13,3.03-.29,4.82-.39,6.39-5.75,15.11-8.34,23.83-6.16l8.6,2.15-5.13,3.46c1.71.01,3.38.1,4.96.28,1.26.14,2.21.75,2.82,1.55l5.97-4.04c.97-.65,1.48-1.84,1.29-3.06-.19-1.22-1.03-2.19-2.12-2.46l-15.17-3.79c-13.08-3.27-26.16,2.37-33.82,13.22.65-.11,1.28-.2,1.88-.26Z"/>
    <path class="cls-4" d="m268.81,329.89c-.6-.58-1.02-1.27-1.12-2.06-.89-7.06.91-14.07,1.36-21.11.08-1.24.73-2.17,1.67-2.79.02-.21.04-.43.06-.64-.57-.31-1.06-.71-1.39-1.21-1.59-2.47-2.03-5.02-1.9-7.6-.48-.6-.78-1.3-.82-2.01-.02-.37-.02-.74-.01-1.11-1.16-.28-2.2-.84-2.71-1.69-1.86-3.1-1.18-6.3.81-9.33-2.09-1.12-4.32-2.01-6.69-2.6l-15.17-3.79-3.51,16.4c-3.77,17.64,6.4,35.25,22.72,39.33l6.72,1.68c0-.49-.01-.98-.02-1.46Z"/>
    <path class="cls-2" d="m268.81,329.89c-.56-.54-.96-1.19-1.09-1.92l-4.99-1.25c-14.77-3.69-24.04-19.7-20.62-35.7l2.88-13.45,12.44,3.11c2.11.53,4.1,1.31,5.96,2.3.63-1.72,1.77-3.41,3.21-5.03-2.45-1.39-5.1-2.46-7.91-3.17l-17.89-4.47-4.14,19.34c-4.11,19.24,7.01,38.5,24.81,42.95l7.19,1.8c.07-.03.15-.06.22-.09-.04-1.48-.07-2.95-.07-4.43Z"/>
    <path class="cls-4" d="m269.05,306.72c.08-1.24.73-2.17,1.67-2.79.02-.21.04-.43.06-.64-.57-.31-1.06-.71-1.39-1.21-1.59-2.47-2.03-5.02-1.9-7.6-.48-.6-.78-1.3-.82-2.01-.02-.37-.02-.74-.01-1.11-1.16-.28-2.2-.84-2.71-1.69-1.86-3.1-1.18-6.3.81-9.33-2.09-1.12-4.32-2.01-6.69-2.6l-15.17-3.79,24.98,43.25c.39-3.49.95-6.99,1.17-10.49Z"/>
    <path class="cls-2" d="m268.46,312.52l-19.63-33.98,8.6,2.15c2.11.53,4.1,1.31,5.96,2.3.63-1.73,1.78-3.43,3.23-5.05-2.45-1.39-5.11-2.47-7.93-3.18l-15.17-3.79c-1.09-.27-2.24.2-2.9,1.2-.63,1.01-.69,2.31-.08,3.36l26.93,46.7c.12-3.24.57-6.48.98-9.72Z"/>
    <path class="cls-4" d="m265.63,354.12c-.5-.35-.99-.73-1.45-1.17-3.56-3.42-4.56-7.87-3.03-11.68-3.9-4.29-8.94-7.48-14.76-8.93l-15.17-3.79-3.51,16.4c-3.77,17.64,6.4,35.25,22.72,39.33l10.33,2.58c.46-11.1,1.33-22.53,4.87-32.73Z"/>
    <path class="cls-2" d="m260.9,383.78l-9.84-2.46c-14.77-3.69-24.04-19.7-20.62-35.7l2.88-13.45,12.44,3.11c5.95,1.49,11.01,4.97,14.7,9.65-.02-2.22.72-4.4,2.24-6.27-4.2-4.45-9.54-7.74-15.68-9.28l-17.89-4.47-4.14,19.34c-4.11,19.24,7.01,38.5,24.81,42.95l10.84,2.71c.07-2.03.16-4.08.26-6.14Z"/>
    <path class="cls-4" d="m265.63,354.12c-.5-.35-.99-.73-1.45-1.17-3.56-3.42-4.56-7.87-3.03-11.68-3.9-4.29-8.94-7.48-14.76-8.93l-15.17-3.79,29.88,51.72c.57-8.97,1.69-17.96,4.54-26.15Z"/>
    <path class="cls-2" d="m261.48,375.24l-24.32-42.11,8.6,2.15c5.95,1.49,11.01,4.97,14.7,9.65-.02-2.23.73-4.42,2.25-6.29-4.2-4.45-9.55-7.75-15.69-9.29l-15.17-3.79c-1.09-.27-2.24.2-2.9,1.2-.63,1.01-.69,2.31-.08,3.36l31.95,55.39c.15-3.42.35-6.86.66-10.28Z"/>
    <path class="cls-4" d="m238.76,438.86l15.17,3.79,3.51-16.4c3.77-17.64-6.4-35.25-22.72-39.33l-15.17-3.79-3.51,16.4c-3.77,17.64,6.4,35.25,22.72,39.33Z"/>
    <path class="cls-2" d="m256.02,446.28l-17.89-4.47c-17.8-4.45-28.93-23.71-24.81-42.95l4.14-19.34,17.89,4.47c17.8,4.45,28.93,23.71,24.81,42.95l-4.14,19.34Zm-34.37-59.55l-2.88,13.45c-3.42,16,5.85,32.01,20.62,35.7l12.44,3.11,2.88-13.45c3.42-16-5.85-32.01-20.62-35.7l-12.44-3.11Z"/>
    <path class="cls-4" d="m234.72,386.89l-15.17-3.79,34.37,59.55,3.51-16.4c3.77-17.64-6.39-35.28-22.71-39.36Z"/>
    <path class="cls-2" d="m253.29,445.6c-.7-.17-1.33-.64-1.76-1.34l-34.34-59.54c-.61-1.05-.55-2.34.08-3.36.63-1.01,1.81-1.48,2.9-1.2l15.17,3.79c17.8,4.45,28.93,23.71,24.81,42.95l-3.51,16.4c-.25,1.18-1.15,2.09-2.28,2.29-.34.12-.72.1-1.09,0Zm-27.8-57.91l27.23,47.14,1.99-9.29c3.42-16-5.85-32.01-20.62-35.7l-8.6-2.15Z"/>
    <path class="cls-4" d="m266.29,423.06c.28-1.82.74-3.59,1.27-5.34-2.09-.3-3.98-1.84-4.2-4.63-2.79,3.73-4.87,8.17-5.93,13.16l-3.51,16.4,13.6,3.4c.2-5.78.5-11.55.91-17.31-1.5-1.25-2.51-3.34-2.14-5.68Z"/>
    <path class="cls-2" d="m260.15,426.93c.85-3.97,2.43-7.56,4.51-10.67-.82-.86-1.35-2.09-1.35-3.69v-3.93c-4.13,4.53-7.19,10.29-8.61,16.94l-4.14,19.34,16.85,4.21c.06-2.05.13-4.1.22-6.15l-10.36-2.59,2.88-13.45Z"/>
    <path class="cls-4" d="m266.29,423.06c.28-1.82.74-3.59,1.27-5.34-2.09-.3-3.98-1.84-4.2-4.63-2.79,3.73-4.87,8.18-5.93,13.17l-3.51,16.4,14.23-9.61c.09-1.44.18-2.87.28-4.3-1.5-1.25-2.51-3.34-2.14-5.68Z"/>
    <path class="cls-2" d="m260.19,426.91c.85-3.96,2.41-7.53,4.49-10.63-.82-.87-1.36-2.1-1.36-3.71v-3.93c-4.13,4.53-7.19,10.29-8.61,16.94l-3.51,16.4c-.25,1.18.18,2.42,1.11,3.14.3.25.62.4.98.49.73.18,1.49.06,2.09-.37l12.56-8.48c.13-2.47.28-4.95.45-7.42l-10.19,6.88,1.99-9.29Z"/>
  </g>
  <g>
    <path class="cls-4" d="m391.29,201.32l10.24,7.29,6.74-11.07c7.25-11.9,4.21-27.91-6.81-35.76l-10.24-7.29-6.74,11.07c-7.25,11.9-4.21,27.91,6.81,35.76Z"/>
    <path class="cls-1" d="m402.17,211.92l-12.07-8.6c-12.01-8.55-15.35-26.07-7.43-39.05l7.95-13.05,12.07,8.6c12.01,8.55,15.35,26.07,7.43,39.05l-7.95,13.05Zm-10.32-54.12l-5.53,9.08c-6.58,10.8-3.79,25.36,6.18,32.46l8.4,5.98,5.53-9.08c6.58-10.8,3.79-25.36-6.18-32.46l-8.4-5.98Z"/>
    <path class="cls-4" d="m394.56,188.58l3.64,2.59,2.4-3.93c2.58-4.24,1.5-9.92-2.42-12.71l-3.64-2.59-2.4,3.93c-2.57,4.22-1.48,9.93,2.42,12.71Z"/>
    <path class="cls-1" d="m398.83,194.47l-5.48-3.9c-4.92-3.51-6.29-10.69-3.05-16.01l3.61-5.92,5.48,3.9c4.92,3.51,6.29,10.69,3.05,16.01l-3.61,5.92Zm-3.66-19.23l-1.18,1.94c-1.91,3.14-1.11,7.35,1.79,9.42l1.8,1.28,1.18-1.94c1.91-3.14,1.11-7.35-1.79-9.42l-1.8-1.28Z"/>
    <path class="cls-5" d="m267.18,428.97c-2.05,3.13-4.01,6.34-5.77,9.66"/>
    <path class="cls-5" d="m420.55,177.41c-14.46,21.45-25.46,44.7-40.59,66.68"/>
    <path class="cls-1" d="m268.43,428.74c-.85-.71-1.53-1.7-1.91-2.84l-6.96,11.42,3.68,2.62,4.99-8.19c.06-1,.13-2.01.2-3.01Z"/>
    <path class="cls-1" d="m382.35,244.44l40.04-65.72-3.68-2.62-42.26,69.37c1.97-.34,3.93-.69,5.9-1.03Z"/>
    <path class="cls-1" d="m356.52,286.85l.76-1.25c-1.85.29-3.73.5-5.65.62l-1.05,1.72c1.96-.49,3.94-.87,5.93-1.08Z"/>
    <path class="cls-4" d="m411.78,215.91l-10.24-7.29,6.74-11.07c7.25-11.9,22.06-15.2,33.07-7.36l10.24,7.29-6.74,11.07c-7.25,11.9-22.06,15.2-33.07,7.36Z"/>
    <path class="cls-1" d="m410.57,217.9l-12.07-8.6,7.95-13.05c7.91-12.99,24.11-16.59,36.12-8.04l12.07,8.6-7.95,13.05c-7.91,12.99-24.11,16.59-36.12,8.04Zm-5.97-9.95l8.4,5.98c9.99,7.11,23.46,4.1,30.02-6.68l5.53-9.08-8.4-5.98c-9.99-7.11-23.46-4.1-30.02,6.68l-5.53,9.08Z"/>
    <path class="cls-4" d="m421.31,207.62l-3.64-2.59,2.4-3.93c2.58-4.24,7.84-5.41,11.76-2.62l3.64,2.59-2.4,3.93c-2.57,4.22-7.86,5.39-11.76,2.62Z"/>
    <path class="cls-1" d="m420.1,209.61l-5.48-3.9,3.61-5.92c3.24-5.32,9.88-6.8,14.81-3.29l5.48,3.9-3.61,5.92c-3.24,5.32-9.88,6.8-14.81,3.29Zm.62-5.26l1.8,1.28c2.9,2.07,6.8,1.2,8.71-1.94l1.18-1.94-1.8-1.28c-2.9-2.07-6.8-1.2-8.71,1.94l-1.18,1.94Z"/>
    <path class="cls-4" d="m432.55,174.74l-12,2.67-2.47-12.97c-2.66-13.96,5.66-27.61,18.57-30.48l12-2.67,2.47,12.97c2.67,13.94-5.65,27.59-18.57,30.48Z"/>
    <path class="cls-1" d="m418.85,180.22l-2.91-15.31c-2.9-15.24,6.2-30.17,20.29-33.31l14.16-3.15,2.91,15.31c2.9,15.24-6.2,30.17-20.29,33.31l-14.16,3.15Zm28.11-46.14l-9.86,2.19c-11.69,2.6-19.27,15.04-16.86,27.67l2.03,10.66,9.86-2.19c11.69-2.6,19.27-15.04,16.86-27.67l-2.03-10.66Z"/>
    <path class="cls-4" d="m433.86,161.58l-4.27.95-.88-4.62c-.94-4.95,2.02-9.8,6.59-10.82l4.27-.95.88,4.62c.96,4.96-1.99,9.8-6.59,10.82Z"/>
    <path class="cls-1" d="m427.9,165.35l-1.32-6.96c-1.19-6.23,2.54-12.35,8.32-13.65l6.44-1.43,1.32,6.96c1.19,6.23-2.54,12.35-8.32,13.65l-6.44,1.43Zm9.98-16.39l-2.1.47c-1.66.37-3.05,1.4-3.98,2.93s-1.24,3.33-.92,5.11l.43,2.27,2.1-.47c1.66-.37,3.05-1.4,3.98-2.93s1.24-3.33.92-5.11l-.43-2.27Z"/>
    <path class="cls-4" d="m368.84,238.16l9.75,6.94c.26-.05.52-.09.79-.14l6.44-10.58c7.25-11.9,4.21-27.91-6.81-35.76l-10.24-7.29-6.74,11.07c-7.25,11.9-4.21,27.91,6.81,35.76Z"/>
    <path class="cls-1" d="m367.65,240.16l7.72,5.49c2.33-.39,4.66-.82,6.99-1.21l5.32-8.74c7.91-12.99,4.58-30.5-7.43-39.05l-12.07-8.6-7.95,13.05c-7.91,12.99-4.58,30.5,7.43,39.05Zm-3.78-36.45l5.53-9.08,8.4,5.98c9.97,7.1,12.76,21.66,6.18,32.46l-5.53,9.08-8.4-5.98c-9.97-7.1-12.76-21.66-6.18-32.46Z"/>
    <path class="cls-4" d="m372.12,225.42l3.64,2.59,2.4-3.93c2.58-4.24,1.5-9.92-2.42-12.71l-3.64-2.59-2.4,3.93c-2.57,4.22-1.48,9.93,2.42,12.71Z"/>
    <path class="cls-1" d="m376.38,231.31l-5.48-3.9c-4.92-3.51-6.29-10.69-3.05-16.01l3.61-5.92,5.48,3.9c4.92,3.51,6.29,10.69,3.05,16.01l-3.61,5.92Zm-3.66-19.23l-1.18,1.94c-1.91,3.14-1.11,7.35,1.79,9.42l1.8,1.28,1.18-1.94c1.91-3.14,1.11-7.35-1.79-9.42l-1.8-1.28Z"/>
    <path class="cls-4" d="m401.71,242.67c3.4.13,5.28,2.65,4.85,4.78,5.08-.61,10.2-1.08,15.36-1.3.16-.25.33-.5.48-.75l6.74-11.07-10.24-7.29c-11.01-7.84-25.82-4.55-33.07,7.36l-6.43,10.56c7.35-1.29,14.72-2.57,22.31-2.29Z"/>
    <path class="cls-1" d="m382.35,244.44l5.32-8.74c6.57-10.78,20.03-13.79,30.02-6.68l8.4,5.98-5.53,9.08c-.47.78-.99,1.51-1.53,2.21,1.26-.08,2.52-.14,3.78-.19.62-.02,1.17.05,1.68.19l7.7-12.64-12.07-8.6c-12.01-8.55-28.21-4.95-36.12,8.04l-7.54,12.38c1.97-.34,3.93-.69,5.9-1.03Z"/>
    <path class="cls-4" d="m401.71,242.67c2.35.09,3.97,1.32,4.61,2.78,1.7-.64,3.24-1.85,4.3-3.6l2.4-3.93-3.64-2.59c-3.92-2.79-9.17-1.62-11.76,2.62l-2.4,3.93,1.17.84c1.76-.09,3.53-.11,5.31-.04Z"/>
    <path class="cls-1" d="m400.33,242.64c-.08-.05-.17-.1-.26-.16l-1.8-1.28,1.18-1.94c1.91-3.14,5.81-4,8.71-1.94l1.8,1.28-1.18,1.94c-1,1.64-2.55,2.66-4.21,2.96,1.53.94,2.27,2.53,1.99,3.95.48-.06.95-.11,1.43-.16,1.76-.87,3.33-2.26,4.47-4.13l3.61-5.92-5.48-3.9c-4.92-3.51-11.57-2.03-14.81,3.29l-3.61,5.92.59.42c2.5-.24,5.02-.37,7.56-.34Z"/>
    <path class="cls-4" d="m336.66,246.77c1.99.22,3.22,1.6,3.53,3.1,7.32-1.15,14.69-2.12,22.08-2.95,1-.11,2.01-.2,3.01-.3-1.79-4.39-4.72-8.3-8.71-11.14l-10.24-7.29-6.74,11.07c-1.44,2.37-2.47,4.9-3.12,7.5.06,0,.13.01.19.02Z"/>
    <path class="cls-1" d="m336.66,246.77c.76.09,1.4.34,1.93.7.58-2.4,1.51-4.73,2.84-6.91l5.53-9.08,8.4,5.98c3.39,2.41,5.92,5.69,7.57,9.39,1.55-.17,3.1-.32,4.66-.47-1.92-5.09-5.22-9.63-9.78-12.88l-12.07-8.6-7.95,13.05c-1.66,2.72-2.81,5.63-3.51,8.62.81.05,1.61.11,2.39.19Z"/>
    <path class="cls-4" d="m353.04,248.03l-3.39-2.41-1.91,3.13c1.76-.25,3.53-.49,5.29-.72Z"/>
    <path class="cls-1" d="m356.11,247.64c-.49-.52-1.03-1-1.62-1.42l-5.48-3.9-3.61,5.92c-.18.3-.34.6-.49.91,3.72-.55,7.45-1.05,11.19-1.51Z"/>
    <path class="cls-4" d="m363.67,286.88c1.54.21,2.74.91,3.57,1.85.47-.04.95-.08,1.42-.12,8.2-1.13,16.44-1.37,24.69-1.48-.53-.26-1-.59-1.36-.98-.94.18-1.9.33-2.88.43-4.25.44-5.48-2.92-4.25-5.39-3.45.15-6.91.22-10.37.2-.47.08-.95.18-1.42.26-4.15,1.29-8.31,2.5-12.61,3.36l2.5,1.78c.23.02.47.04.7.08Z"/>
    <path class="cls-1" d="m363.67,286.88c1.54.21,2.74.91,3.57,1.85.47-.04.95-.08,1.42-.12.27-.04.54-.07.82-.1-.47-.28-.93-.58-1.38-.9l-4.58-3.26c-2.05.49-4.13.92-6.25,1.25l1.51,1.08c1.63-.07,3.26-.01,4.88.2Z"/>
    <path class="cls-4" d="m384.87,281.19c-2.77.12-5.55.17-8.33.19,2.49,1.71,5.51,1.84,8.03.61.07-.27.17-.54.3-.8Z"/>
    <path class="cls-1" d="m384.87,281.19c-3.45.15-6.91.22-10.37.2-.47.08-.95.18-1.42.26-.04.01-.08.02-.11.03l2.24,1.6c2.92,2.08,6.43,2.39,9.49,1.21-.43-1.02-.36-2.25.17-3.31Z"/>
  </g>
  <g>
    <path class="cls-4" d="m226.86,122.9l15.52-1.37-1.26-16.77c-1.36-18.05-15.99-31.49-32.69-30.02l-15.52,1.37,1.26,16.77c1.36,18.05,15.99,31.49,32.69,30.02Z"/>
    <path class="cls-2" d="m245.39,124.3l-18.3,1.61c-18.21,1.6-34.22-13.1-35.7-32.78l-1.49-19.79,18.3-1.61c18.21-1.6,34.22,13.1,35.7,32.78l1.49,19.79Zm-49.47-45.42l1.04,13.76c1.23,16.37,14.56,28.58,29.67,27.25l12.73-1.12-1.04-13.76c-1.23-16.37-14.56-28.58-29.67-27.25l-12.73,1.12Z"/>
    <path class="cls-5" d="m267.34,453.3c.19,2.48.39,4.97.58,7.45"/>
    <path class="cls-5" d="m264.67,419.5c.72,9.28,1.46,18.56,2.2,27.84"/>
    <path class="cls-5" d="m259.31,348.81c.45,6.02.89,12.03,1.34,18.05"/>
    <path class="cls-5" d="m238.81,74.23c2.81,34.59,5.45,69.19,8.03,103.8,2.57,34.64,5.07,69.28,7.59,103.93,1.42,19.53,2.84,39.06,4.28,58.59"/>
    <path class="cls-2" d="m263.33,362.5l-.87-11.56c-2.37-3.4-2.63-7.39-.81-10.72l-20.05-266.24-5.57.49,24.34,323.16c.46-11.37.54-23.71,2.96-35.14Z"/>
    <path class="cls-2" d="m268.8,454.13c-.89-.85-1.46-2.17-1.41-3.96.18-6.88.52-13.74.99-20.59l-.07-.96c-1.43-1.26-2.37-3.29-2.01-5.56.27-1.75.7-3.45,1.21-5.14l-.02-.22c-2.19-.35-4.17-2.05-4.17-5.14v-7.59c-1.09-.46-2.04-1.27-2.58-2.39l4.79,63.54c.87-.57,1.9-.84,2.93-.81-.04-3.03-.07-6.05-.04-9.08,0-.8.15-1.5.39-2.11Z"/>
    <path class="cls-4" d="m208.42,74.74l-15.52,1.37,49.47,45.42-1.26-16.77c-1.36-18.05-15.99-31.49-32.69-30.02Z"/>
    <path class="cls-2" d="m242.6,124.55c-.71.06-1.45-.18-2.05-.7l-49.44-45.46c-.87-.8-1.18-2.05-.87-3.23.35-1.18,1.31-2,2.43-2.1l15.52-1.37c18.21-1.6,34.22,13.1,35.7,32.78l1.27,16.81c.09,1.21-.51,2.37-1.52,2.93-.3.19-.66.29-1.04.33Zm-42.75-46.02l39.18,35.98-.72-9.51c-1.23-16.37-14.56-28.58-29.67-27.25l-8.8.77Z"/>
    <path class="cls-4" d="m257.92,120.17l-15.55,1.37-1.26-16.77c-1.36-18.05,11.07-33.87,27.76-35.34l15.52-1.37,1.26,16.77c1.39,18.04-11.04,33.87-27.73,35.34Z"/>
    <path class="cls-2" d="m258.14,123.18l-18.33,1.61-1.49-19.79c-1.48-19.69,12.12-36.99,30.33-38.6l18.3-1.61,1.49,19.79c1.51,19.68-12.12,36.99-30.29,38.59Zm-13.21-4.9l12.73-1.12c15.14-1.33,26.44-15.74,25.2-32.08l-1.04-13.76-12.73,1.12c-15.14,1.33-26.44,15.74-25.2,32.08l1.04,13.76Z"/>
    <path class="cls-4" d="m268.9,69.42l15.52-1.37-42.05,53.48-1.26-16.77c-1.36-18.05,11.07-33.87,27.8-35.34Z"/>
    <path class="cls-2" d="m242.6,124.55c-.37.03-.72,0-1.07-.14-1.09-.38-1.85-1.42-1.94-2.63l-1.26-16.77c-1.48-19.69,12.12-36.99,30.33-38.6l15.52-1.37c1.11-.1,2.19.55,2.71,1.65.52,1.1.37,2.39-.37,3.34l-42.02,53.48c-.45.61-1.14.98-1.89,1.04Zm26.53-52.11c-15.14,1.33-26.44,15.74-25.2,32.08l.72,9.51,33.28-42.36-8.8.77Z"/>
    <path class="cls-4" d="m248.91,61.41l-10.07,12.82-11.86-10.89c-12.76-11.72-14.32-32.41-3.48-46.2l10.07-12.82,11.86,10.89c12.76,11.68,14.32,32.38,3.48,46.2Z"/>
    <path class="cls-2" d="m239.13,78.48l-14-12.86c-13.93-12.79-15.64-35.43-3.8-50.49l11.89-15.13,14,12.86c13.93,12.79,15.64,35.43,3.8,50.49l-11.89,15.13Zm-5.27-69.94l-8.28,10.54c-9.81,12.49-8.39,31.34,3.16,41.95l9.75,8.95,8.28-10.54c9.81-12.49,8.39-31.34-3.16-41.95l-9.75-8.95Z"/>
    <path class="cls-4" d="m223.47,17.1l10.07-12.82,5.27,69.94-11.86-10.89c-12.76-11.75-14.32-32.44-3.48-46.24Z"/>
    <path class="cls-2" d="m239.03,77.24c-.71.06-1.45-.18-2.05-.7l-11.86-10.89c-6.73-6.18-10.85-14.85-11.56-24.39-.72-9.54,2.05-18.78,7.76-26.1h0l10.07-12.82c.74-.94,1.9-1.28,2.98-.94,1.09.38,1.85,1.42,1.94,2.63l5.27,69.94c.09,1.21-.51,2.37-1.52,2.93-.3.19-.66.29-1.04.33Zm-13.42-58.17c-4.75,6.05-7.07,13.77-6.47,21.7s4.01,15.12,9.63,20.28l6.7,6.15-4.17-55.41-5.69,7.27Z"/>
    <path class="cls-4" d="m231.06,178.75l15.52-1.37-1.26-16.77c-1.36-18.05-15.99-31.49-32.69-30.02l-15.52,1.37,1.26,16.77c1.36,18.05,15.99,31.49,32.69,30.02Z"/>
    <path class="cls-2" d="m249.59,180.15l-18.3,1.61c-18.21,1.6-34.22-13.1-35.7-32.78l-1.49-19.79,18.3-1.61c18.21-1.6,34.22,13.1,35.7,32.78l1.49,19.79Zm-49.47-45.42l1.04,13.76c1.23,16.37,14.56,28.58,29.67,27.25l12.73-1.12-1.04-13.76c-1.23-16.37-14.56-28.58-29.67-27.25l-12.73,1.12Z"/>
    <path class="cls-4" d="m212.63,130.59l-15.52,1.37,49.47,45.42-1.26-16.77c-1.36-18.05-15.99-31.49-32.69-30.02Z"/>
    <path class="cls-2" d="m246.8,180.39c-.71.06-1.45-.18-2.05-.7l-49.44-45.46c-.87-.8-1.18-2.05-.87-3.23.35-1.18,1.31-2,2.43-2.1l15.52-1.37c18.21-1.6,34.22,13.1,35.7,32.78l1.26,16.77c.09,1.21-.51,2.37-1.52,2.93-.29.23-.66.33-1.03.36Zm-42.75-46.02l39.18,35.98-.72-9.51c-1.23-16.37-14.56-28.58-29.67-27.25l-8.8.77Z"/>
    <path class="cls-4" d="m262.12,176.01l-15.55,1.37-1.26-16.77c-1.36-18.05,11.07-33.87,27.76-35.34l15.52-1.37,1.26,16.77c1.39,18.04-11.04,33.87-27.73,35.34Z"/>
    <path class="cls-2" d="m262.35,179.03l-18.33,1.61-1.49-19.79c-1.48-19.69,12.12-36.99,30.33-38.6l18.3-1.61,1.49,19.79c1.51,19.68-12.12,36.99-30.29,38.59Zm-13.21-4.9l12.73-1.12c15.14-1.33,26.44-15.74,25.2-32.08l-1.04-13.76-12.73,1.12c-15.14,1.33-26.44,15.74-25.2,32.08l1.04,13.76Z"/>
    <path class="cls-4" d="m273.11,125.27l15.52-1.37-42.05,53.48-1.26-16.77c-1.36-18.05,11.07-33.87,27.8-35.34Z"/>
    <path class="cls-2" d="m246.8,180.39c-.37.03-.72,0-1.07-.14-1.09-.38-1.85-1.42-1.94-2.63l-1.26-16.77c-1.48-19.69,12.12-36.99,30.33-38.6l15.52-1.37c1.11-.1,2.19.55,2.71,1.65.52,1.1.37,2.39-.37,3.34l-42.02,53.48c-.45.61-1.14.98-1.89,1.04Zm26.53-52.11c-15.14,1.33-26.44,15.74-25.2,32.08l.72,9.51,33.28-42.36-8.8.77Z"/>
    <path class="cls-4" d="m235.27,234.59l15.52-1.37-1.26-16.77c-1.36-18.05-15.99-31.49-32.69-30.02l-15.52,1.37,1.26,16.77c1.36,18.05,15.99,31.49,32.69,30.02Z"/>
    <path class="cls-2" d="m253.8,235.99l-18.3,1.61c-18.21,1.6-34.22-13.1-35.7-32.78l-1.49-19.79,18.3-1.61c18.21-1.6,34.22,13.1,35.7,32.78l1.49,19.79Zm-49.47-45.42l1.04,13.76c1.23,16.37,14.56,28.58,29.67,27.25l12.73-1.12-1.04-13.76c-1.23-16.37-14.56-28.58-29.67-27.25l-12.73,1.12Z"/>
    <path class="cls-4" d="m216.83,186.44l-15.52,1.37,49.47,45.42-1.26-16.77c-1.36-18.05-15.99-31.49-32.69-30.02Z"/>
    <path class="cls-2" d="m251.01,236.24c-.71.06-1.45-.18-2.05-.7l-49.44-45.46c-.87-.8-1.18-2.05-.87-3.23.35-1.18,1.31-2,2.43-2.1l15.52-1.37c18.21-1.6,34.22,13.1,35.7,32.78l1.26,16.77c.09,1.21-.51,2.37-1.52,2.93-.29.23-.66.33-1.03.36Zm-42.75-46.02l39.18,35.98-.72-9.51c-1.23-16.37-14.56-28.58-29.67-27.25l-8.8.77Z"/>
    <path class="cls-4" d="m266.33,231.86l-15.55,1.37-1.26-16.77c-1.36-18.05,11.07-33.87,27.76-35.34l15.52-1.37,1.26,16.77c1.39,18.04-11.04,33.87-27.73,35.34Z"/>
    <path class="cls-2" d="m266.56,234.87l-18.33,1.61-1.49-19.79c-1.48-19.69,12.12-36.99,30.33-38.6l18.3-1.61,1.49,19.79c1.51,19.68-12.12,36.99-30.29,38.59Zm-13.21-4.9l12.73-1.12c15.14-1.33,26.44-15.74,25.2-32.08l-1.04-13.76-12.73,1.12c-15.14,1.33-26.44,15.74-25.2,32.08l1.04,13.76Z"/>
    <path class="cls-4" d="m277.32,181.11l15.52-1.37-42.05,53.48-1.26-16.77c-1.36-18.05,11.07-33.87,27.8-35.34Z"/>
    <path class="cls-2" d="m251.01,236.24c-.37.03-.72,0-1.07-.14-1.09-.38-1.85-1.42-1.94-2.63l-1.26-16.77c-1.48-19.69,12.12-36.99,30.33-38.6l15.52-1.37c1.11-.1,2.19.55,2.71,1.65.52,1.1.37,2.39-.37,3.34l-41.99,53.47c-.48.62-1.17.98-1.92,1.04Zm26.53-52.11c-15.14,1.33-26.44,15.74-25.2,32.08l.72,9.51,33.28-42.36-8.8.77Z"/>
    <path class="cls-4" d="m239.47,290.44l15.52-1.37-1.26-16.77c-1.36-18.05-15.99-31.49-32.69-30.02l-15.52,1.37,1.26,16.77c1.36,18.05,15.99,31.49,32.69,30.02Z"/>
    <path class="cls-2" d="m258,291.84l-18.3,1.61c-18.21,1.6-34.22-13.1-35.7-32.78l-1.49-19.79,18.3-1.61c18.21-1.6,34.22,13.1,35.7,32.78l1.49,19.79Zm-49.47-45.42l1.04,13.76c1.23,16.37,14.56,28.58,29.67,27.25l12.73-1.12-1.04-13.76c-1.23-16.37-14.56-28.58-29.67-27.25l-12.73,1.12Z"/>
    <path class="cls-4" d="m221.04,242.28l-15.52,1.37,49.47,45.42-1.26-16.77c-1.36-18.05-15.99-31.49-32.69-30.02Z"/>
    <path class="cls-2" d="m255.22,292.09c-.71.06-1.45-.18-2.05-.7l-49.44-45.46c-.87-.8-1.18-2.05-.87-3.23.35-1.18,1.31-2,2.43-2.1l15.52-1.37c18.21-1.6,34.22,13.1,35.7,32.78l1.26,16.77c.09,1.21-.51,2.37-1.52,2.93-.29.23-.66.33-1.03.36Zm-42.75-46.02l39.18,35.98-.72-9.51c-1.23-16.37-14.56-28.58-29.67-27.25l-8.8.77Z"/>
    <path class="cls-4" d="m271.75,268.53c.2-.37.41-.74.65-1.09.25-.65.65-1.16,1.15-1.56-.08-.37-.14-.74-.15-1.12-1.9.87-3.67,1.82-5.46,2.86-.47.27-.65.48-.82.74.1,0,.21,0,.35,0,1.39-.07,2.82.08,4.27.17Z"/>
    <path class="cls-4" d="m268.1,276.41c-2.17-.22-4.22-.67-6.01-1.42-7.23-3.03-5.95-9.62-.51-13.35,6.31-4.34,14.72-6.66,22.35-9.2.02,0,.03-.01.05-.02,4.45-2.44,9.51-4.13,13.54-4.48.13-.05.27-.09.41-.14l-.92-12.21-15.52,1.37c-16.69,1.47-29.12,17.29-27.76,35.34l1.26,16.77,8.32-.73c-1.52-4.07.98-8.26,4.79-11.93Z"/>
    <path class="cls-2" d="m263.95,289.67c-.86-1.43-1.17-2.88-1.07-4.33l-5.32.47-1.04-13.76c-1.23-16.34,10.06-30.75,25.2-32.08l12.73-1.12.71,9.43c.81-.15,1.61-.28,2.36-.35.61-.26,1.29-.45,2.06-.52.35-.03.73-.07,1.11-.11l-1.13-14.98-18.3,1.61c-18.21,1.6-31.81,18.91-30.33,38.6l1.49,19.79,13.53-1.19c-.87-.32-1.61-.8-2.01-1.47Z"/>
    <path class="cls-4" d="m262.09,274.99c-7.23-3.03-5.95-9.62-.51-13.35,6.26-4.3,14.57-6.62,22.16-9.14l13.3-16.91-15.52,1.37c-16.72,1.47-29.15,17.29-27.8,35.34l1.26,16.77,10.3-13.11c-1.13-.24-2.21-.56-3.2-.97Z"/>
    <path class="cls-4" d="m267.94,267.62c-.47.27-.65.48-.82.74.1,0,.21,0,.35,0,1.2-.06,2.45.04,3.7.13l2.31-2.94c-.04-.26-.08-.53-.08-.79-1.9.87-3.67,1.82-5.46,2.86Z"/>
    <path class="cls-2" d="m272.4,267.44c.25-.65.65-1.16,1.15-1.56-.08-.37-.14-.74-.15-1.12-1.73.79-3.36,1.66-4.98,2.6l-.78.99c1.34-.05,2.71.08,4.11.18.2-.37.4-.74.65-1.09Z"/>
    <path class="cls-2" d="m268.1,276.41c-2.07-.21-4.03-.64-5.76-1.33l-5.09,6.47-.72-9.51c-1.23-16.34,10.06-30.75,25.2-32.08l8.8-.77-11.71,14.91c1.72-.56,3.43-1.11,5.1-1.67.02,0,.03-.01.05-.02,1.74-.96,3.58-1.8,5.42-2.49l9.72-12.37c.74-.94.89-2.24.37-3.34-.52-1.1-1.6-1.75-2.71-1.65l-15.52,1.37c-18.21,1.6-31.81,18.91-30.33,38.6l1.26,16.77c.09,1.21.86,2.25,1.94,2.63.35.14.7.17,1.07.14.74-.07,1.43-.43,1.89-1.04l6.27-7.98c.82-2.31,2.56-4.56,4.73-6.65Z"/>
    <path class="cls-4" d="m243.68,346.28l15.52-1.37-1.26-16.77c-1.36-18.05-15.99-31.49-32.69-30.02l-15.52,1.37,1.26,16.77c1.36,18.05,15.99,31.49,32.69,30.02Z"/>
    <path class="cls-2" d="m261.65,340.22l-.93-12.32c-1.48-19.69-17.49-34.39-35.7-32.78l-18.3,1.61,1.49,19.79c1.48,19.69,17.49,34.39,35.7,32.78l17-1.5c-.8-2.56-.55-5.23.74-7.58Zm-18.19,3.05c-15.11,1.33-28.44-10.88-29.67-27.25l-1.04-13.76,12.73-1.12c15.11-1.33,28.44,10.88,29.67,27.25l1.04,13.76-12.73,1.12Z"/>
    <path class="cls-4" d="m225.25,298.13l-15.52,1.37,49.47,45.42-1.26-16.77c-1.36-18.05-15.99-31.49-32.69-30.02Z"/>
    <path class="cls-2" d="m261.65,340.22l-.93-12.36c-1.48-19.69-17.49-34.39-35.7-32.78l-15.52,1.37c-1.11.1-2.08.92-2.43,2.1-.32,1.17,0,2.43.87,3.23l49.44,45.46c.6.52,1.34.76,2.05.7.37-.03.74-.13,1.03-.36.12-.06.23-.14.33-.22-.64-2.43-.35-4.92.86-7.13Zm-44.97-38.31l8.8-.77c15.11-1.33,28.44,10.88,29.67,27.25l.72,9.51-39.18-35.98Z"/>
    <path class="cls-4" d="m268.81,329.89c-.6-.58-1.02-1.27-1.12-2.06-.89-7.06.91-14.07,1.36-21.11.08-1.24.73-2.17,1.67-2.79.02-.21.04-.43.06-.64-.57-.31-1.06-.71-1.39-1.21-.34-.52-.61-1.05-.85-1.58-7.18,6.6-11.43,16.72-10.61,27.65l1.26,16.77,1.26-.11c0-3.21,1.61-6.33,4.84-8.52,1.13-.76,2.33-1.41,3.58-1.96-.04-1.48-.07-2.95-.07-4.43Z"/>
    <path class="cls-2" d="m260.72,327.9c-.74-9.83,3.06-18.96,9.5-24.97-.33-.25-.61-.53-.83-.86-.99-1.53-1.53-3.09-1.77-4.67-8.38,7.19-13.41,18.61-12.48,30.99l1.49,19.79,4.27-.38c-.8-2.56-.55-5.23.74-7.58l-.93-12.32Z"/>
    <path class="cls-4" d="m268.81,329.89c-.6-.58-1.02-1.27-1.12-2.06-.89-7.06.91-14.07,1.36-21.11.08-1.24.73-2.17,1.67-2.79.02-.21.04-.43.06-.64-.57-.31-1.06-.71-1.39-1.21-.34-.52-.61-1.05-.85-1.58-7.19,6.6-11.43,16.71-10.61,27.65l1.26,16.77,1.4-1.78c.47-2.6,2.04-5.04,4.7-6.85.43-.29.88-.56,1.33-.82l2.21-2.81c-.02-.92-.03-1.84-.03-2.76Z"/>
    <path class="cls-2" d="m268.81,329.89c-.29-.28-.53-.58-.72-.91l-6.62,8.42-.72-9.51c-.74-9.83,3.05-18.95,9.48-24.95-.34-.25-.63-.53-.84-.87-.99-1.53-1.53-3.09-1.77-4.67-8.38,7.19-13.41,18.61-12.48,30.99l1.26,16.77c.09,1.21.86,2.25,1.94,2.63.35.14.7.17,1.07.14.5-.04.97-.24,1.37-.54-1.08-4.06.41-8.33,4.5-11.11,1.13-.76,2.33-1.4,3.58-1.96-.04-1.48-.07-2.95-.07-4.43Z"/>
    <path class="cls-4" d="m260.25,400.15c.33-7,.43-14.45.98-21.86-3.67-15.08-16.9-25.62-31.78-24.31l-15.52,1.37,1.26,16.77c1.36,18.05,15.99,31.49,32.69,30.02l12.4-1.09c-.03-.28-.04-.58-.03-.89Z"/>
    <path class="cls-2" d="m260.25,400.15c.03-.72.06-1.45.09-2.18l-12.69,1.12c-15.11,1.33-28.44-10.88-29.67-27.25l-1.04-13.76,12.73-1.12c15.11-1.33,28.44,10.88,29.67,27.25l1.01,13.43c.34-8.46.47-17.47,1.52-26.23-5.72-13.11-18.52-21.69-32.66-20.45l-18.3,1.61,1.49,19.79c1.48,19.69,17.49,34.39,35.7,32.78l13.63-1.2c-.95-.9-1.56-2.17-1.49-3.8Z"/>
    <path class="cls-4" d="m261.23,378.29c-3.67-15.09-16.9-25.66-31.78-24.35l-15.52,1.37,46.41,42.65c.26-6.36.4-13.02.88-19.67Z"/>
    <path class="cls-2" d="m260.25,400.15c.43-9.19.48-19.12,1.63-28.76-5.72-13.11-18.52-21.7-32.66-20.46l-15.52,1.37c-1.11.1-2.11.93-2.43,2.1-.32,1.17,0,2.43.87,3.23l48.41,44.52c-.22-.59-.34-1.25-.3-1.99Zm-39.37-42.42l8.8-.77c15.11-1.33,28.44,10.88,29.67,27.25l.72,9.51-39.18-35.98Z"/>
    <path class="cls-2" d="m262.8,365.21c-2.67,5.69-3.96,12.21-3.45,19.03l1.01,13.4c.42-10.48.53-21.78,2.44-32.43Z"/>
    <path class="cls-2" d="m262.8,365.21c-2.67,5.69-3.96,12.21-3.45,19.03l1.01,13.4c.42-10.48.53-21.78,2.44-32.43Z"/>
  </g>
  <g>
    <circle class="cls-6" cx="284.86" cy="771.82" r="158.77"/>
    <circle class="cls-6" cx="841.86" cy="821.58" r="98.1"/>
    <path class="cls-3" d="m791.84,244.97h0c15.21,0,27.56,12.35,27.56,27.56v150.55h-55.13v-150.55c0-15.21,12.35-27.56,27.56-27.56Z"/>
    <path class="cls-6" d="m862.87,713.09l36.38-62.37v-148.99h-490.27c-20.09,0-36.38-16.29-36.38-36.38v-98.6c0-1.99,1.62-3.61,3.61-3.61h0c1.99,0,3.61,1.62,3.61,3.61v110.15c0,4.62,3.75,8.37,8.37,8.37h0"/>
    <path class="cls-6" d="m577.03,377.01l-38.11-116.07h-233.01c-35.88,0-64.96,29.09-64.96,64.96v284.98"/>
    <line class="cls-6" x1="433.45" y1="796.25" x2="663.86" y2="796.25"/>
    <line class="cls-6" x1="546.04" y1="687.11" x2="663.84" y2="687.11"/>
  </g>
  <g>
    <path d="m152.38,1011.54c0,8.92-2.21,15.78-6.63,20.57-4.42,4.79-10.76,7.19-19.02,7.19s-14.6-2.4-19.02-7.19c-4.42-4.79-6.63-11.67-6.63-20.64s2.22-15.82,6.65-20.55c4.43-4.73,10.79-7.1,19.07-7.1s14.61,2.38,19,7.15c4.39,4.77,6.58,11.62,6.58,20.57Zm-39.33,0c0,6.02,1.14,10.55,3.43,13.6,2.29,3.05,5.7,4.57,10.25,4.57,9.12,0,13.67-6.06,13.67-18.17s-4.53-18.21-13.6-18.21c-4.55,0-7.97,1.53-10.28,4.59-2.31,3.06-3.46,7.6-3.46,13.62Z"/>
    <path d="m212.46,1011.54c0,8.92-2.21,15.78-6.63,20.57-4.42,4.79-10.76,7.19-19.02,7.19s-14.6-2.4-19.02-7.19c-4.42-4.79-6.63-11.67-6.63-20.64s2.22-15.82,6.65-20.55c4.43-4.73,10.79-7.1,19.07-7.1s14.61,2.38,19,7.15c4.39,4.77,6.58,11.62,6.58,20.57Zm-39.33,0c0,6.02,1.14,10.55,3.43,13.6,2.29,3.05,5.7,4.57,10.25,4.57,9.12,0,13.67-6.06,13.67-18.17s-4.53-18.21-13.6-18.21c-4.55,0-7.97,1.53-10.28,4.59-2.31,3.06-3.46,7.6-3.46,13.62Z"/>
    <path d="m272.53,1011.54c0,8.92-2.21,15.78-6.63,20.57-4.42,4.79-10.76,7.19-19.02,7.19s-14.6-2.4-19.02-7.19c-4.42-4.79-6.63-11.67-6.63-20.64s2.22-15.82,6.65-20.55c4.43-4.73,10.79-7.1,19.07-7.1s14.61,2.38,19,7.15c4.39,4.77,6.58,11.62,6.58,20.57Zm-39.33,0c0,6.02,1.14,10.55,3.43,13.6,2.29,3.05,5.7,4.57,10.25,4.57,9.12,0,13.67-6.06,13.67-18.17s-4.53-18.21-13.6-18.21c-4.55,0-7.97,1.53-10.28,4.59-2.31,3.06-3.46,7.6-3.46,13.62Z"/>
    <path d="m299.55,1017.44l13.67-16.77,8.07,4.39-10.28,12.83,10.28,12.83-8.07,4.39-13.67-16.7v-.96Zm18.65,0l13.64-16.77,8.11,4.39-10.28,12.83,10.28,12.83-8.11,4.39-13.64-16.7v-.96Z"/>
    <path d="m372.64,993.41c-4.3,0-7.63,1.62-9.99,4.85-2.36,3.23-3.54,7.73-3.54,13.51,0,12.02,4.51,18.02,13.53,18.02,3.78,0,8.37-.95,13.75-2.84v9.58c-4.42,1.84-9.36,2.76-14.82,2.76-7.84,0-13.83-2.38-17.99-7.13-4.15-4.75-6.23-11.58-6.23-20.47,0-5.6,1.02-10.51,3.06-14.73,2.04-4.21,4.97-7.45,8.79-9.69,3.82-2.25,8.3-3.37,13.43-3.37s10.49,1.27,15.78,3.8l-3.69,9.29c-2.02-.96-4.04-1.79-6.08-2.51-2.04-.71-4.04-1.07-6.01-1.07Z"/>
    <path d="m446.76,1011.54c0,8.92-2.21,15.78-6.63,20.57-4.42,4.79-10.76,7.19-19.02,7.19s-14.6-2.4-19.02-7.19c-4.42-4.79-6.63-11.67-6.63-20.64s2.22-15.82,6.65-20.55c4.43-4.73,10.79-7.1,19.07-7.1s14.61,2.38,19,7.15c4.39,4.77,6.58,11.62,6.58,20.57Zm-39.33,0c0,6.02,1.14,10.55,3.43,13.6,2.29,3.05,5.7,4.57,10.25,4.57,9.12,0,13.67-6.06,13.67-18.17s-4.53-18.21-13.6-18.21c-4.55,0-7.97,1.53-10.28,4.59-2.31,3.06-3.46,7.6-3.46,13.62Z"/>
    <path d="m451.52,1029.05h4.16c3.56-7.13,6.38-14.25,8.44-21.36,2.06-7.11,3.6-14.79,4.61-23.02h31.4v44.38h7.19v25.21h-11.02v-15.7h-33.76v15.7h-11.02v-25.21Zm26.28-34.87c-.79,5.63-2.1,11.59-3.93,17.88-1.83,6.29-3.89,11.96-6.17,16.99h21.05v-34.87h-10.95Z"/>
    <path d="m552.84,1001.48c0,5.8-1.81,10.23-5.44,13.31-3.62,3.07-8.78,4.61-15.46,4.61h-4.9v19.17h-11.43v-53.89h17.21c6.54,0,11.5,1.41,14.91,4.22,3.4,2.81,5.11,7.01,5.11,12.59Zm-25.8,8.55h3.76c3.51,0,6.14-.69,7.89-2.08,1.74-1.39,2.62-3.41,2.62-6.06s-.73-4.66-2.19-5.93c-1.46-1.28-3.75-1.92-6.87-1.92h-5.2v16Z"/>
    <path d="m605.51,984.67l-16.66,38.11c-2.09,4.79-4.05,8.23-5.88,10.32-1.83,2.09-4,3.64-6.51,4.66-2.51,1.02-5.55,1.53-9.14,1.53-3.07,0-5.93-.37-8.59-1.11v-9.8c2.16.88,4.85,1.33,8.07,1.33,2.04,0,3.69-.47,4.94-1.42,1.25-.95,2.3-2.59,3.13-4.92l-18.65-38.7h12.09l13.27,30.04h.37l.66-1.84,11.13-28.2h11.76Z"/>
    <path d="m624.68,1010.55l-18.1-25.87h11.76l17.43,26.1v-26.1h10.65v26.1l17.43-26.1h11.79l-18.13,25.87,19.17,28.01h-12.24l-18.02-27.31v27.31h-10.65v-27.31l-18.02,27.31h-12.24l19.17-28.01Z"/>
    <path d="m714.5,1038.56h-31.03v-53.89h31.03v9.36h-19.61v11.83h18.24v9.36h-18.24v13.9h19.61v9.44Z"/>
    <path d="m748.63,993.41c-4.3,0-7.63,1.62-9.99,4.85-2.36,3.23-3.54,7.73-3.54,13.51,0,12.02,4.51,18.02,13.53,18.02,3.78,0,8.37-.95,13.75-2.84v9.58c-4.42,1.84-9.36,2.76-14.82,2.76-7.84,0-13.83-2.38-17.99-7.13-4.15-4.75-6.23-11.58-6.23-20.47,0-5.6,1.02-10.51,3.06-14.73,2.04-4.21,4.97-7.45,8.79-9.69,3.82-2.25,8.3-3.37,13.43-3.37s10.49,1.27,15.78,3.8l-3.69,9.29c-2.01-.96-4.04-1.79-6.08-2.51-2.04-.71-4.04-1.07-6.01-1.07Z"/>
    <path d="m794.63,1038.56h-11.43v-44.38h-14.63v-9.51h40.69v9.51h-14.63v44.38Z"/>
    <path d="m817.55,984.67h16.77c7.64,0,13.19,1.09,16.64,3.26,3.45,2.18,5.18,5.63,5.18,10.38,0,3.22-.76,5.86-2.27,7.92-1.51,2.06-3.52,3.3-6.03,3.72v.37c3.41.76,5.88,2.19,7.39,4.28,1.51,2.09,2.27,4.87,2.27,8.33,0,4.91-1.78,8.75-5.33,11.5-3.55,2.75-8.37,4.13-14.47,4.13h-20.16v-53.89Zm11.43,21.34h6.63c3.1,0,5.34-.48,6.73-1.44s2.08-2.54,2.08-4.76c0-2.06-.76-3.54-2.27-4.44-1.51-.9-3.9-1.35-7.17-1.35h-6.01v11.98Zm0,9.07v14.04h7.45c3.14,0,5.47-.6,6.97-1.81,1.5-1.2,2.25-3.05,2.25-5.53,0-4.47-3.19-6.71-9.58-6.71h-7.08Z"/>
    <path d="m917.18,1011.54c0,8.92-2.21,15.78-6.63,20.57-4.42,4.79-10.76,7.19-19.02,7.19s-14.6-2.4-19.02-7.19c-4.42-4.79-6.63-11.67-6.63-20.64s2.22-15.82,6.65-20.55c4.43-4.73,10.79-7.1,19.07-7.1s14.61,2.38,19,7.15c4.39,4.77,6.58,11.62,6.58,20.57Zm-39.33,0c0,6.02,1.14,10.55,3.43,13.6,2.29,3.05,5.7,4.57,10.25,4.57,9.12,0,13.67-6.06,13.67-18.17s-4.53-18.21-13.6-18.21c-4.55,0-7.97,1.53-10.28,4.59-2.31,3.06-3.46,7.6-3.46,13.62Z"/>
    <path d="m946.34,1018.4l-13.67,16.7-8.07-4.39,10.25-12.83-10.25-12.83,8.07-4.39,13.67,16.77v.96Zm18.65,0l-13.67,16.7-8.07-4.39,10.25-12.83-10.25-12.83,8.07-4.39,13.67,16.77v.96Z"/>
  </g>
</svg>