<?xml version="1.0" encoding="utf-8"?>
<!-- Generator: Adobe Illustrator 27.1.1, SVG Export Plug-In . SVG Version: 6.00 Build 0)  -->
<svg version="1.1" id="Layer_1" xmlns="http://www.w3.org/2000/svg" xmlns:xlink="http://www.w3.org/1999/xlink" x="0px" y="0px"
	 viewBox="0 0 512 512" style="enable-background:new 0 0 512 512;" xml:space="preserve">
<style type="text/css">
	.st0{fill:#FFFFFF;}
</style>
<g>
	<g>
		<path class="st0" d="M340.3,161.9L340.3,161.9c-3.5,0-6.8,0.1-10.2,0.2l21.1-63.4h-11c-14.3,0-27.2,1.1-38.4,3.1l4.5-45.3L256,0
			l-50.3,56.6l4.5,45.3c-11.2-2.1-24.1-3.1-38.4-3.1h-11.1l21.7,63.4c-3.5-0.1-7-0.2-10.6-0.2h-11l21.1,63.4
			c-3.3-0.1-6.7-0.2-10.1-0.2h-11l21.1,63.4c-3.3-0.1-6.7-0.2-10.1-0.2h-11l21.1,63.4c-3.3-0.1-6.7-0.2-10.1-0.2h-11l31.6,94.8h55.7
			V512H264v-65.8h55.7l31.6-94.8h-11c-3.5,0-6.8,0.1-10.2,0.2l21.1-63.4h-11c-3.5,0-6.8,0.1-10.1,0.2l21.1-63.4h-11
			c-3.5,0-6.8,0.1-10.2,0.2l21.1-63.4L340.3,161.9L340.3,161.9z M329.2,114.8L313,163.4c-24.3,2.8-39.6,9.6-49.1,16.9v-36.6
			c0.1-1.2,1.8-15.9,31.1-24C304.6,117,316.1,115.4,329.2,114.8z M264,206.8v-0.1C264,206.7,264,206.7,264,206.8z M264,143.6v-0.1
			C264,143.5,264,143.5,264,143.6z M217.1,119.7c29.4,8.1,31,22.9,31.1,24v36.6c-9.4-7.3-24.5-13.9-48.5-16.8L183,114.8
			C196.1,115.4,207.5,117,217.1,119.7z M192.9,178.6c52.2,4.8,55.1,27.1,55.2,28.2v36.6c-9.5-7.3-24.7-14-49.1-16.9L182.9,178
			C186.3,178.1,189.7,178.3,192.9,178.6z M192.1,241.7c53,4.6,55.9,27.1,56,28.3v36.6c-9.5-7.3-24.7-14-49.1-16.9l-16.2-48.6
			C186.1,241.3,189.1,241.5,192.1,241.7z M248.1,430.4h-44.3l-21-62.9c3.2,0.1,6.3,0.3,9.2,0.6c53,4.6,55.9,27.1,56,28.3
			L248.1,430.4L248.1,430.4z M248.1,369.8c-9.5-7.3-24.7-14-49.1-16.9l-16.2-48.6c3.2,0.1,6.3,0.3,9.2,0.6c53,4.6,55.9,27.1,56,28.3
			V369.8z M256.1,124.6c-6.5-8-16.4-14.3-29.5-18.6l-4.4-44.1L256,23.8l33.9,38.1l-4.4,44.1C270.4,111.1,261.4,118.1,256.1,124.6z
			 M264,369.8v-36.6c0.1-1.2,3.1-23.6,56-28.3c3-0.3,6.1-0.5,9.2-0.6L313,352.9C288.7,355.7,273.5,362.5,264,369.8z M264,396.3v-0.1
			C264,396.2,264,396.2,264,396.3z M264,333.1V333C264,333,264,333.1,264,333.1z M313,289.7c-24.4,2.9-39.6,9.6-49.1,16.9V270
			c0.1-1.2,3.1-23.6,56-28.3c3-0.3,6.1-0.5,9.2-0.6L313,289.7z M264,270v-0.1C264,269.9,264,269.9,264,270z M308.2,430.4H264v-34
			c0-0.6,0.6-5.8,6.8-11.6c6.5-6.2,20.3-14.1,49.3-16.6c3-0.3,6.1-0.5,9.2-0.6L308.2,430.4z M313,226.6
			c-24.3,2.9-39.6,9.6-49.1,16.9v-36.6c0.1-1.2,3.1-23.6,56-28.3c3-0.3,6-0.5,9.2-0.6L313,226.6z"/>
	</g>
</g>
</svg>
